<?xml version="1.0" encoding="UTF-8"?>
<svg version="1.1" xmlns="http://www.w3.org/2000/svg" width="195" height="221">
<path d="M0 0 C4.36904896 3.10829946 8.33881843 6.35260658 12.0625 10.21484375 C12.619375 9.74433594 13.17625 9.27382813 13.75 8.7890625 C18.7081025 4.74385387 23.00009212 2.1350088 29.0625 0.21484375 C30.37513521 -0.34734065 31.68763419 -0.90984324 33 -1.47265625 C38.8165904 -3.62821622 43.93893427 -3.45761873 49.8125 -1.59765625 C53.32589237 0.36173565 55.46824857 2.1427039 58.0625 5.21484375 C58.495625 5.71113281 58.92875 6.20742187 59.375 6.71875 C64.93368796 14.11379023 66.0625 25.20377348 66.0625 34.21484375 C66.67996094 34.10785156 67.29742187 34.00085937 67.93359375 33.890625 C75.38674848 32.83561223 81.01701856 33.40705331 87.296875 37.765625 C93.13520397 42.57052713 95.94283662 46.79382663 96.6875 54.40234375 C96.74679688 55.35753906 96.80609375 56.31273437 96.8671875 57.296875 C97.02440302 60.18561375 97.02440302 60.18561375 97.4453125 62.9140625 C98.48599318 70.49774619 97.12377335 76.88975371 95.0625 84.21484375 C94.4025 84.21484375 93.7425 84.21484375 93.0625 84.21484375 C92.9078125 85.35953125 92.9078125 85.35953125 92.75 86.52734375 C91.98799915 89.50607436 91.21162979 90.15167915 89.0625 92.21484375 C87.56954516 94.35350649 87.56954516 94.35350649 87.0625 97.21484375 C88.17121331 99.88950253 89.31230909 102.168405 90.75 104.65234375 C97.51953433 117.28909657 98.65393432 130.11228351 99.0625 144.21484375 C99.11857422 145.95507812 99.11857422 145.95507812 99.17578125 147.73046875 C99.04962428 151.61088322 98.39660117 155.25134522 97.5625 159.02734375 C96.48512984 163.58074151 96.48512984 163.58074151 96.0625 168.21484375 C95.4025 168.21484375 94.7425 168.21484375 94.0625 168.21484375 C93.918125 169.32859375 93.77375 170.44234375 93.625 171.58984375 C93.0625 175.21484375 93.0625 175.21484375 92.0625 177.21484375 C91.4025 177.21484375 90.7425 177.21484375 90.0625 177.21484375 C89.77375 177.95734375 89.485 178.69984375 89.1875 179.46484375 C88.23947356 181.78224172 87.21404089 183.9940149 86.0625 186.21484375 C85.4025 186.21484375 84.7425 186.21484375 84.0625 186.21484375 C83.4025 187.86484375 82.7425 189.51484375 82.0625 191.21484375 C81.4025 191.21484375 80.7425 191.21484375 80.0625 191.21484375 C80.0625 191.87484375 80.0625 192.53484375 80.0625 193.21484375 C79.4025 193.21484375 78.7425 193.21484375 78.0625 193.21484375 C77.7325 194.20484375 77.4025 195.19484375 77.0625 196.21484375 C76.4025 196.21484375 75.7425 196.21484375 75.0625 196.21484375 C75.0625 196.87484375 75.0625 197.53484375 75.0625 198.21484375 C73.26953125 199.6171875 73.26953125 199.6171875 70.875 201.15234375 C70.09769531 201.65636719 69.32039062 202.16039062 68.51953125 202.6796875 C67.70871094 203.18628906 66.89789063 203.69289062 66.0625 204.21484375 C65.2890625 204.72789062 64.515625 205.2409375 63.71875 205.76953125 C50.97248115 212.70500107 37.59484233 212.1210869 24.0625 208.21484375 C20.85083085 206.81643919 17.9782447 205.14674821 15.0625 203.21484375 C14.13244141 202.65023437 14.13244141 202.65023437 13.18359375 202.07421875 C11.5 201.02734375 11.5 201.02734375 9.0625 199.21484375 C9.0625 198.55484375 9.0625 197.89484375 9.0625 197.21484375 C4.87812736 197.85261058 1.50978789 199.29898159 -2.3125 201.08984375 C-18.6367229 208.3282283 -37.8649156 209.94550145 -54.9375 204.21484375 C-59.16115071 202.20091758 -63.2057702 200.05123179 -66.9375 197.21484375 C-66.9375 196.55484375 -66.9375 195.89484375 -66.9375 195.21484375 C-67.5975 195.21484375 -68.2575 195.21484375 -68.9375 195.21484375 C-71.56538203 192.90549288 -72.81744369 191.57501268 -73.9375 188.21484375 C-74.411875 187.74046875 -74.88625 187.26609375 -75.375 186.77734375 C-77.12457792 185.02776583 -78.00879089 183.50089695 -78.9375 181.21484375 C-78.9375 180.22484375 -78.9375 179.23484375 -78.9375 178.21484375 C-79.5975 178.21484375 -80.2575 178.21484375 -80.9375 178.21484375 C-81.41962214 176.65325316 -81.89805873 175.09052447 -82.375 173.52734375 C-82.64183594 172.65722656 -82.90867187 171.78710938 -83.18359375 170.890625 C-87.28676196 156.32756686 -86.56894065 138.57583378 -79.81640625 124.953125 C-78.89840349 123.34914215 -77.92309581 121.77820262 -76.9375 120.21484375 C-76.751875 119.47234375 -76.56625 118.72984375 -76.375 117.96484375 C-75.80161735 115.67131315 -74.60132115 114.8786649 -72.9375 113.21484375 C-71.89127125 111.23863389 -70.88310065 109.24113085 -69.9375 107.21484375 C-69.2775 107.21484375 -68.6175 107.21484375 -67.9375 107.21484375 C-66.9475 104.24484375 -65.9575 101.27484375 -64.9375 98.21484375 C-66.0203125 97.93640625 -66.0203125 97.93640625 -67.125 97.65234375 C-73.19692073 94.5489176 -75.80376226 88.01870363 -78.08203125 81.890625 C-80.65522201 73.84206029 -81.54673258 67.32547033 -78.9375 59.21484375 C-78.56625 58.03921875 -78.195 56.86359375 -77.8125 55.65234375 C-77.379375 54.44578125 -77.379375 54.44578125 -76.9375 53.21484375 C-76.2775 53.21484375 -75.6175 53.21484375 -74.9375 53.21484375 C-74.751875 52.34859375 -74.56625 51.48234375 -74.375 50.58984375 C-71.24277792 43.23593105 -64.75655755 40.37789999 -57.68359375 37.390625 C-56.77738281 37.00261719 -55.87117188 36.61460938 -54.9375 36.21484375 C-53.88175781 35.81523438 -52.82601562 35.415625 -51.73828125 35.00390625 C-47.94832679 32.58298694 -47.68393101 30.59370173 -46.6875 26.27734375 C-44.81755011 18.47768434 -44.81755011 18.47768434 -42.9375 15.21484375 C-42.49792969 14.39242188 -42.05835938 13.57 -41.60546875 12.72265625 C-36.99982814 5.79801627 -29.74608654 1.54668099 -21.9375 -0.78515625 C-21.22980469 -1.08421875 -20.52210937 -1.38328125 -19.79296875 -1.69140625 C-12.52509318 -4.64437846 -6.73292059 -4.09168179 0 0 Z M-0.9375 89.21484375 C-4.26056085 89.75160835 -7.57845061 90.01884288 -10.9375 90.21484375 C-7.46013974 93.99518998 -7.46013974 93.99518998 -2.9375 96.21484375 C-2 97.83984375 -2 97.83984375 -0.9375 100.21484375 C-0.26004746 101.4288387 0.42824924 102.63682086 1.125 103.83984375 C3.86129318 108.60628994 4.53192452 112.42748081 5.125 117.83984375 C5.21587891 118.64164063 5.30675781 119.4434375 5.40039062 120.26953125 C5.62447653 122.25092243 5.8439275 124.2328368 6.0625 126.21484375 C11.8924796 124.91848769 11.8924796 124.91848769 17.0625 122.21484375 C17.65916381 119.37206421 17.65916381 119.37206421 17.625 116.08984375 C17.88233495 110.40964555 18.8020858 106.39495963 21.0625 101.21484375 C21.30033203 100.15136719 21.30033203 100.15136719 21.54296875 99.06640625 C22.0625 97.21484375 22.0625 97.21484375 23.875 96.15234375 C24.596875 95.84296875 25.31875 95.53359375 26.0625 95.21484375 C28.28993787 93.79506466 28.28993787 93.79506466 30.0625 92.21484375 C30.0625 91.55484375 30.0625 90.89484375 30.0625 90.21484375 C29.0003125 90.09367187 27.938125 89.9725 26.84375 89.84765625 C25.4165464 89.6794025 23.98947067 89.51006175 22.5625 89.33984375 C21.45853882 89.20993042 21.45853882 89.20993042 20.33227539 89.07739258 C16.59785411 88.61519329 13.09571274 88.05325777 9.5 86.90234375 C5.03647288 86.00963833 3.14034348 87.3165373 -0.9375 89.21484375 Z M-24.9375 149.21484375 C-22.65245736 153.78492904 -21.55542005 154.40389471 -16.9375 156.21484375 C-14.30764192 156.88325229 -14.30764192 156.88325229 -11.9375 156.21484375 C-10.11866991 153.83154915 -8.9375 152.25666038 -8.9375 149.21484375 C-14.2175 149.21484375 -19.4975 149.21484375 -24.9375 149.21484375 Z " fill="#16A6F3" transform="translate(84.9375,8.78515625)"/>
<path d="M0 0 C10.24235105 4.74767002 16.62816104 13.21866312 20.9375 23.4375 C21.54501353 25.09550569 22.12990876 26.76204556 22.6875 28.4375 C23.0278125 29.44490234 23.0278125 29.44490234 23.375 30.47265625 C27.42523299 45.07037097 24.65372222 59.93855889 17.9375 73.1875 C12.83291227 81.97660218 6.49588617 88.39490094 -2.3125 93.4375 C-3.34375 94.05625 -4.375 94.675 -5.4375 95.3125 C-12.07518074 97.86545413 -20.59641133 97.75257695 -27.2265625 95.40625 C-33.43812066 91.94470056 -37.9508314 86.9777257 -42.3125 81.4375 C-42.85648437 80.77492188 -43.40046875 80.11234375 -43.9609375 79.4296875 C-46.09220368 76.28822579 -46.51328579 73.12618095 -47.3125 69.4375 C-49.34004039 71.26228635 -50.68278096 73.00526414 -52.1875 75.3125 C-58.64676445 84.81141831 -66.99803116 89.86610459 -78.15234375 92.10351562 C-89.31603499 93.82954745 -101.81463045 94.28998978 -111.3125 87.4375 C-119.30098389 80.91274453 -124.28775865 73.60463597 -126.3125 63.4375 C-128.26528511 42.978045 -124.0434959 28.14343943 -110.9375 12.125 C-106.2310285 6.95001097 -100.06186288 1.98250886 -92.9296875 1.1640625 C-83.34747726 0.80916582 -77.43535232 4.25836944 -70.3125 10.4375 C-65.73203305 16.08193368 -62.29779547 21.75497486 -62.0390625 29.140625 C-62.51066221 33.10206254 -63.87398785 35.27402478 -66.3125 38.4375 C-70.76983169 41.61550642 -75.68212176 40.05870166 -80.8046875 39.43359375 C-84.84677633 39.43809496 -86.9105989 40.31376983 -90.3125 42.4375 C-93.59245861 45.97640271 -94.5868502 48.72034269 -94.75 53.4375 C-94.5550592 57.76518569 -93.81749579 60.80957507 -91.3125 64.4375 C-86.88369417 68.43422721 -84.41116048 69.58855635 -78.5 69.625 C-77.46230469 69.63917969 -76.42460938 69.65335937 -75.35546875 69.66796875 C-69.50183321 69.22462536 -65.35073705 66.60960127 -61.3125 62.4375 C-58.24029045 58.13640663 -57.02257769 54.52634875 -55.875 49.375 C-54.66246988 44.05852176 -53.25789345 41.18056558 -49.3125 37.4375 C-45.76159911 35.66204955 -42.18121745 35.81176654 -38.3125 36.4375 C-28.18110247 41.02036157 -24.44200223 48.69056359 -20.5078125 58.55078125 C-18.06943698 64.96804836 -18.06943698 64.96804836 -13.3125 69.4375 C-8.17280185 70.21396169 -8.17280185 70.21396169 -3.7109375 68.16796875 C-0.00280708 63.71170675 0.89506223 60.81144426 1.0625 55.125 C1.13597656 53.42923828 1.13597656 53.42923828 1.2109375 51.69921875 C0.20948568 45.4588287 -5.42580009 42.44503211 -10.25 38.875 C-11.24902344 38.13121094 -12.24804688 37.38742188 -13.27734375 36.62109375 C-15.2987089 35.1668555 -17.35865416 33.76478644 -19.453125 32.41796875 C-22.13279959 30.56196463 -24.03608616 28.79279047 -26.125 26.3125 C-26.70894531 25.62929687 -27.29289062 24.94609375 -27.89453125 24.2421875 C-31.36730627 19.82229202 -30.84018146 14.83667549 -30.3125 9.4375 C-28.24681126 4.78970033 -25.13881746 1.86514357 -20.77734375 -0.64453125 C-14.08526083 -3.13682838 -6.6293421 -2.34938164 0 0 Z " fill="#DFE3E7" transform="translate(150.3125,96.5625)"/>
<path d="M0 0 C-0.39832031 0.4846875 -0.79664062 0.969375 -1.20703125 1.46875 C-5.99060793 7.52096381 -9.39160602 12.82613972 -9.0625 20.75 C-7.27041812 33.01161286 -0.22158662 40.55278948 9.2734375 47.71484375 C9.84320313 48.13894531 10.41296875 48.56304687 11 49 C9.5097061 52.46689423 7.5036472 54.6913985 4.875 57.375 C-7.114634 70.52119034 -14.41392895 87.86353754 -14.21484375 105.71484375 C-13.35254319 118.90020319 -8.69746519 130.10228505 0.32421875 139.73046875 C11.99151318 149.62637834 25.56711041 149.76471461 40 149 C50.57546912 147.71059717 61.70492825 142.66858709 70 136 C72.86697492 137.28519565 74.97607712 138.57129254 77 141 C77 141.66 77 142.32 77 143 C77.66 143 78.32 143 79 143 C79 143.66 79 144.32 79 145 C79.55558594 145.27714844 80.11117187 145.55429688 80.68359375 145.83984375 C82.2820211 146.64040517 83.87824901 147.44536798 85.47265625 148.25390625 C86.32730469 148.68574219 87.18195313 149.11757812 88.0625 149.5625 C88.91972656 149.99691406 89.77695313 150.43132812 90.66015625 150.87890625 C98.2898277 154.53452512 107.76828439 154.11152085 115.6875 151.4375 C133.39390256 143.97533035 142.9042054 130.92757052 151 114 C152.79024302 108.03252328 153.51709708 102.2014901 154 96 C158.8490073 104.24910804 155.59882848 115.14974881 153.65625 123.9453125 C152.92998621 126.80516672 152.92998621 126.80516672 153 129 C152.34 129 151.68 129 151 129 C150.855625 130.11375 150.71125 131.2275 150.5625 132.375 C150 136 150 136 149 138 C148.34 138 147.68 138 147 138 C146.71125 138.7425 146.4225 139.485 146.125 140.25 C145.17697356 142.56739797 144.15154089 144.77917115 143 147 C142.34 147 141.68 147 141 147 C140.34 148.65 139.68 150.3 139 152 C138.34 152 137.68 152 137 152 C137 152.66 137 153.32 137 154 C136.34 154 135.68 154 135 154 C134.67 154.99 134.34 155.98 134 157 C133.34 157 132.68 157 132 157 C132 157.66 132 158.32 132 159 C130.20703125 160.40234375 130.20703125 160.40234375 127.8125 161.9375 C127.03519531 162.44152344 126.25789062 162.94554687 125.45703125 163.46484375 C124.64621094 163.97144531 123.83539063 164.47804687 123 165 C122.2265625 165.51304687 121.453125 166.02609375 120.65625 166.5546875 C107.90998115 173.49015732 94.53234233 172.90624315 81 169 C77.78833085 167.60159544 74.9157447 165.93190446 72 164 C71.06994141 163.43539062 71.06994141 163.43539062 70.12109375 162.859375 C68.4375 161.8125 68.4375 161.8125 66 160 C66 159.34 66 158.68 66 158 C61.81562736 158.63776683 58.44728789 160.08413784 54.625 161.875 C38.3007771 169.11338455 19.0725844 170.7306577 2 165 C-2.22365071 162.98607383 -6.2682702 160.83638804 -10 158 C-10 157.34 -10 156.68 -10 156 C-10.66 156 -11.32 156 -12 156 C-14.62788203 153.69064913 -15.87994369 152.36016893 -17 149 C-17.474375 148.525625 -17.94875 148.05125 -18.4375 147.5625 C-20.18707792 145.81292208 -21.07129089 144.2860532 -22 142 C-22 141.01 -22 140.02 -22 139 C-22.66 139 -23.32 139 -24 139 C-24.48212214 137.43840941 -24.96055873 135.87568072 -25.4375 134.3125 C-25.70433594 133.44238281 -25.97117187 132.57226562 -26.24609375 131.67578125 C-30.34926196 117.11272311 -29.63144065 99.36099003 -22.87890625 85.73828125 C-21.96090349 84.1342984 -20.98559581 82.56335887 -20 81 C-19.814375 80.2575 -19.62875 79.515 -19.4375 78.75 C-18.86411735 76.4564694 -17.66382115 75.66382115 -16 74 C-14.95377125 72.02379014 -13.94560065 70.0262871 -13 68 C-12.34 68 -11.68 68 -11 68 C-10.01 65.03 -9.02 62.06 -8 59 C-9.0828125 58.7215625 -9.0828125 58.7215625 -10.1875 58.4375 C-16.25942073 55.33407385 -18.86626226 48.80385988 -21.14453125 42.67578125 C-23.71772201 34.62721654 -24.60923258 28.11062658 -22 20 C-21.62875 18.824375 -21.2575 17.64875 -20.875 16.4375 C-20.441875 15.2309375 -20.441875 15.2309375 -20 14 C-19.34 14 -18.68 14 -18 14 C-17.814375 13.13375 -17.62875 12.2675 -17.4375 11.375 C-15.06960126 5.81558557 -10.83825397 3.09588218 -5.75 0.0625 C-3 -1 -3 -1 0 0 Z " fill="#000001" transform="translate(28,48)"/>
<path d="M0 0 C4.01412909 1.33804303 4.73005954 3.52415367 7 7 C10.46232494 9.30821663 11.91798316 9.27000989 16 9.25 C17.051875 9.25515625 18.10375 9.2603125 19.1875 9.265625 C22.20650379 9.20467017 22.20650379 9.20467017 25 7 C25.99 7 26.98 7 28 7 C28.25394531 7.66386719 28.50789063 8.32773438 28.76953125 9.01171875 C30.54730404 13.57267141 32.2702294 17.9053441 35 22 C34.32453125 22.29132813 33.6490625 22.58265625 32.953125 22.8828125 C25.43554748 26.28781731 25.43554748 26.28781731 21 33 C20.12587154 38.53331799 20.20893649 43.3896305 23.0625 48.3125 C28.24733112 55.40753206 35.62367064 59.909819 42.81640625 64.75390625 C51.40758294 70.81516588 51.40758294 70.81516588 53 74 C54.03938352 86.33628967 54.03938352 86.33628967 51.1875 90.625 C50.465625 91.40875 49.74375 92.1925 49 93 C48.5875 93.61875 48.175 94.2375 47.75 94.875 C45.33292706 96.42883261 42.95244739 96.4610613 40.1328125 96.59375 C36.75860567 95.65441037 35.23661462 93.6321574 33 91 C31.375 87.984375 31.375 87.984375 30 84.75 C29.49082031 83.60917969 28.98164062 82.46835938 28.45703125 81.29296875 C27.97621094 80.20628906 27.49539062 79.11960937 27 78 C23.83922505 70.91188341 20.3157422 66.1590705 13 63 C9.79876267 62.28283969 7.18604504 62.18799241 4 63 C-1.45086371 66.79190519 -2.91895333 72.14669869 -4.63671875 78.26953125 C-6.72674939 85.36113811 -10.52874746 91.11724848 -17 95 C-23.34039589 96.99552638 -30.64368777 97.19882552 -36.5625 94.1875 C-37.366875 93.465625 -38.17125 92.74375 -39 92 C-39.5775 91.525625 -40.155 91.05125 -40.75 90.5625 C-44.18386579 86.27016777 -44.43117906 81.75909476 -44.3203125 76.4375 C-43.71893172 71.86113895 -41.30102963 69.14332907 -37.9375 66.1875 C-32.96667523 63.14086546 -27.89163257 63.71144588 -22.3125 64.5625 C-18.49450187 65.15811426 -18.49450187 65.15811426 -15 64 C-13.75285597 61.59047977 -13.75285597 61.59047977 -13 59 C-12.67 58.34 -12.34 57.68 -12 57 C-11.46692297 48.48742619 -15.01322444 42.63367835 -20 36 C-20.66 35.34 -21.32 34.68 -22 34 C-21.67 33.01 -21.34 32.02 -21 31 C-13.05252863 38.72040076 -8.82998857 44.50413825 -8.375 55.8125 C-8.31699219 56.99489258 -8.31699219 56.99489258 -8.2578125 58.20117188 C-8.16411156 60.1337538 -8.08099221 62.06684376 -8 64 C-7.37351563 63.71125 -6.74703125 63.4225 -6.1015625 63.125 C-5.28429687 62.75375 -4.46703125 62.3825 -3.625 62 C-2.81289062 61.62875 -2.00078125 61.2575 -1.1640625 60.875 C1 60 1 60 3 60 C2.96519531 59.154375 2.93039063 58.30875 2.89453125 57.4375 C2.72811247 50.46376063 3.0128292 45.31901516 6 39 C6.2475 38.278125 6.495 37.55625 6.75 36.8125 C8.51463004 34.25378645 10.85801595 32.83489187 13.44140625 31.1484375 C15.15572515 30.06753066 15.15572515 30.06753066 16 28 C14.90945312 28.05220703 14.90945312 28.05220703 13.796875 28.10546875 C8.0631879 28.25983725 3.20705395 27.94533897 -2.3125 26.3125 C-7.73069578 24.79848928 -9.89265027 25.53752781 -15 28 C-22.46371384 28.92271188 -27.88342146 28.44842076 -34 24 C-32.84906095 21.50629873 -31.57651836 19.39124515 -30 17.125 C-28.06637651 14.10371329 -26.98060728 11.43212548 -26 8 C-24.95005859 8.24363281 -24.95005859 8.24363281 -23.87890625 8.4921875 C-20.84001007 9.02822075 -18.02147718 9.13279767 -14.9375 9.125 C-13.91527344 9.12757812 -12.89304687 9.13015625 -11.83984375 9.1328125 C-9.36308189 9.01698045 -7.32880143 8.8317148 -5 8 C-3.87483915 6.16715557 -3.87483915 6.16715557 -3 4 C-2.02418241 2.64886795 -1.02970259 1.31053056 0 0 Z M-39 87 C-36.71495736 91.57008529 -35.61792005 92.18905096 -31 94 C-28.37014192 94.66840854 -28.37014192 94.66840854 -26 94 C-24.18116991 91.6167054 -23 90.04181663 -23 87 C-28.28 87 -33.56 87 -39 87 Z " fill="#000101" transform="translate(99,71)"/>
<path d="M0 0 C6.06322174 0.0783362 9.08570452 1.537625 13.36328125 5.890625 C19.50790682 12.66038618 22.51362947 19.570935 24.8125 28.3125 C24.98523438 28.93261963 25.15796875 29.55273926 25.3359375 30.19165039 C26.1795524 33.945996 26.08069606 37.72873217 26.125 41.5625 C26.16850586 42.79419922 26.16850586 42.79419922 26.21289062 44.05078125 C26.27369227 49.95321818 25.17942154 54.40328308 21.8125 59.3125 C18.43146497 62.38616821 16.47476728 63.22704616 11.9375 63.8125 C5.92857772 63.47867098 1.31302033 60.96307236 -2.6875 56.5625 C-3.1825 55.82 -3.6775 55.0775 -4.1875 54.3125 C-3.8575 54.9725 -3.5275 55.6325 -3.1875 56.3125 C-2.6775901 61.89643133 -2.44879937 66.75302088 -4.875 71.875 C-7.93073562 75.09591052 -10.53483771 77.05629118 -14.984375 77.74609375 C-24.36047095 77.75849599 -30.58852423 76.0284847 -37.5 69.5625 C-42.39030021 64.35072587 -45.8927674 58.21770696 -46.4375 51 C-46.07466594 45.64819763 -44.60643949 42.59300637 -40.625 39 C-35.85619844 35.698522 -31.88619773 35.74661533 -26.1875 36.3125 C-19.21403851 38.12043446 -14.34712542 41.37720612 -9.1875 46.3125 C-9.46464844 45.59964844 -9.74179688 44.88679688 -10.02734375 44.15234375 C-10.38957031 43.19457031 -10.75179687 42.23679688 -11.125 41.25 C-11.48464844 40.31027344 -11.84429687 39.37054688 -12.21484375 38.40234375 C-14.88876478 29.90808056 -16.30474394 17.66407484 -13 9.1875 C-11.0434653 6.08403117 -8.91721866 3.75487986 -6.1875 1.3125 C-4.47957001 -0.39542999 -2.33206519 0.05979654 0 0 Z " fill="#EFF3F7" transform="translate(74.1875,13.6875)"/>
<path d="M0 0 C0 0.66 0 1.32 0 2 C0.61488281 2.25007813 1.22976562 2.50015625 1.86328125 2.7578125 C4.36859433 4.21428336 4.9860275 5.27589622 6.1875 7.875 C6.67283203 8.89207031 6.67283203 8.89207031 7.16796875 9.9296875 C11.57315914 20.89095936 8.5564612 33.17640089 4.1875 43.6875 C0.17148776 52.02148028 -4.23073816 59.15078606 -13 63 C-16.20348816 63.7295072 -18.80816407 63.79946173 -22 63 C-27.15246245 59.75585698 -29.68076372 56.05127171 -31.55078125 50.30859375 C-34.3070856 36.14358615 -30.90697597 23.2863559 -23.6875 11 C-17.0711481 1.38783211 -11.66563827 -1.04990744 0 0 Z " fill="#F6F9FB" transform="translate(134,14)"/>
<path d="M0 0 C0 3.55376308 -0.82884918 4.57072053 -2.75 7.5 C-8.46407557 16.99186487 -10.35478358 24.48641963 -10.4375 35.5625 C-10.45272705 37.01692505 -10.45272705 37.01692505 -10.46826172 38.50073242 C-10.34157767 49.0181849 -7.96609264 57.05831208 -1 65 C-0.54753906 65.556875 -0.09507813 66.11375 0.37109375 66.6875 C5.60734636 72.62093072 11.80143701 74.88171353 19.6015625 75.3828125 C32.48139237 75.83952645 45.42486092 75.06164389 55.546875 66.171875 C57 65 57 65 59 65 C59.2784375 64.42765625 59.556875 63.8553125 59.84375 63.265625 C60.98273792 61.03382434 62.19936383 58.89129126 63.5 56.75 C63.9228125 56.04359375 64.345625 55.3371875 64.78125 54.609375 C65.38453125 53.81273437 65.38453125 53.81273437 66 53 C66.66 53 67.32 53 68 53 C68.20753906 53.54527344 68.41507812 54.09054688 68.62890625 54.65234375 C72.90293438 65.11387704 79.29567191 72.17017176 88.80078125 78.12890625 C94.975223 80.57455547 103.12306405 79.91630747 109.3359375 77.9375 C116.17215111 74.70391824 121.65937059 70.31365654 127 65 C127 68 127 68 125.125 70.1875 C123 72 123 72 121 72 C121 72.66 121 73.32 121 74 C113.4217311 80.90399353 105.32412433 85 95 85 C95 85.66 95 86.32 95 87 C97.54406781 86.57397439 100.08462785 86.13462329 102.625 85.6875 C103.33785156 85.56955078 104.05070312 85.45160156 104.78515625 85.33007812 C109.33983092 84.515251 112.85157984 83.12404095 117 81 C117.66 81.33 118.32 81.66 119 82 C117.08588443 82.98414433 115.1686033 83.96213349 113.25 84.9375 C112.18265625 85.48277344 111.1153125 86.02804688 110.015625 86.58984375 C102.82128171 89.95403796 94.03096056 90.37140258 86.36328125 88.28125 C84.13374813 87.31628628 82.08750862 86.24132922 80 85 C78.84951172 84.35224609 78.84951172 84.35224609 77.67578125 83.69140625 C73.6589903 81.3290004 73.6589903 81.3290004 72 80 C72 79.34 72 78.68 72 78 C71.34 78 70.68 78 70 78 C68.2856382 76.04072937 66.61594832 74.04119788 65 72 C61.45587155 73.28877398 58.33322544 74.96609523 55.078125 76.85546875 C52.63128502 78.20307047 50.1498516 79.42957445 47.625 80.625 C46.77164063 81.02976562 45.91828125 81.43453125 45.0390625 81.8515625 C32.7778677 86.4849703 16.36450061 87.63227563 4.24609375 82.1875 C3.50488281 81.795625 2.76367188 81.40375 2 81 C1.28972656 80.649375 0.57945313 80.29875 -0.15234375 79.9375 C-10.22845197 74.36759757 -16.60144196 64.67925436 -19.96875 53.8984375 C-24.77126295 35.26646594 -20.52109019 19.2525616 -11 3 C-10.34 2.67 -9.68 2.34 -9 2 C-10.06501873 5.55006245 -11.35260481 8.78571904 -13.0625 12.0625 C-14.5946103 15.02989579 -15.58136939 17.65095514 -16 21 C-15.34 21 -14.68 21 -14 21 C-13.01 18.03 -12.02 15.06 -11 12 C-10.34 12 -9.68 12 -9 12 C-8.9175 11.278125 -8.835 10.55625 -8.75 9.8125 C-7.62574899 5.59655872 -5.52284957 2.88832892 -1.75 0.6875 C-1.1725 0.460625 -0.595 0.23375 0 0 Z " fill="#004A99" transform="translate(35,113)"/>
<path d="M0 0 C0 1.80693984 -0.04476627 3.61578489 -0.17578125 5.41796875 C-0.52022621 12.39543947 0.38438598 16.68791226 5 22 C9.85894863 27.11050183 15.9979592 30.83536028 21.81640625 34.75390625 C30.40758294 40.81516588 30.40758294 40.81516588 32 44 C33.03938352 56.33628967 33.03938352 56.33628967 30.1875 60.625 C29.1046875 61.800625 29.1046875 61.800625 28 63 C27.5875 63.61875 27.175 64.2375 26.75 64.875 C24.33292706 66.42883261 21.95244739 66.4610613 19.1328125 66.59375 C15.75860567 65.65441037 14.23661462 63.6321574 12 61 C10.375 57.984375 10.375 57.984375 9 54.75 C8.49082031 53.60917969 7.98164062 52.46835938 7.45703125 51.29296875 C6.73580078 49.66294922 6.73580078 49.66294922 6 48 C2.83922505 40.91188341 -0.6842578 36.1590705 -8 33 C-11.20123733 32.28283969 -13.81395496 32.18799241 -17 33 C-22.45086371 36.79190519 -23.91895333 42.14669869 -25.63671875 48.26953125 C-27.72674939 55.36113811 -31.52874746 61.11724848 -38 65 C-44.34039589 66.99552638 -51.64368777 67.19882552 -57.5625 64.1875 C-58.366875 63.465625 -59.17125 62.74375 -60 62 C-60.5775 61.525625 -61.155 61.05125 -61.75 60.5625 C-65.18386579 56.27016777 -65.43117906 51.75909476 -65.3203125 46.4375 C-64.71893172 41.86113895 -62.30102963 39.14332907 -58.9375 36.1875 C-53.96667523 33.14086546 -48.89163257 33.71144588 -43.3125 34.5625 C-39.49450187 35.15811426 -39.49450187 35.15811426 -36 34 C-34.75285597 31.59047977 -34.75285597 31.59047977 -34 29 C-33.67 28.34 -33.34 27.68 -33 27 C-32.46692297 18.48742619 -36.01322444 12.63367835 -41 6 C-41.66 5.34 -42.32 4.68 -43 4 C-42.67 3.01 -42.34 2.02 -42 1 C-34.05252863 8.72040076 -29.82998857 14.50413825 -29.375 25.8125 C-29.31699219 26.99489258 -29.31699219 26.99489258 -29.2578125 28.20117188 C-29.16411156 30.1337538 -29.08099221 32.06684376 -29 34 C-27.5414128 33.35474023 -26.08313863 32.7087728 -24.625 32.0625 C-23.40683594 31.52302734 -23.40683594 31.52302734 -22.1640625 30.97265625 C-20.76316215 30.3430097 -19.37374716 29.68687358 -18 29 C-10.7732501 28.22570537 -6.21781079 30.43240365 0 34 C0 34.66 0 35.32 0 36 C0.66 36 1.32 36 2 36 C6.70265655 42.23027109 9.9322789 49.70590539 13.28369141 56.72851562 C14.90355522 60.52521723 14.90355522 60.52521723 18 63 C19.99960012 63.039992 22.00047242 63.04346799 24 63 C27.42579496 57.7185661 28.13434974 52.13620687 27 46 C24.49093256 42.12705875 21.7514237 39.95538776 17.8125 37.625 C9.10185919 32.25924526 -1.0498296 25.95888031 -5 16 C-5.31690852 9.59844795 -4.02502624 4.93390314 0 0 Z M-60 57 C-57.71495736 61.57008529 -56.61792005 62.18905096 -52 64 C-49.37014192 64.66840854 -49.37014192 64.66840854 -47 64 C-45.18116991 61.6167054 -44 60.04181663 -44 57 C-49.28 57 -54.56 57 -60 57 Z " fill="#137DD3" transform="translate(120,101)"/>
<path d="M0 0 C0.33 0 0.66 0 1 0 C1.01458252 0.6798999 1.02916504 1.3597998 1.04418945 2.06030273 C1.1193642 5.18656282 1.21579232 8.31183482 1.3125 11.4375 C1.34633789 13.04141602 1.34633789 13.04141602 1.38085938 14.67773438 C1.58019061 20.6033085 2.17654611 25.64864214 4.36791992 31.17993164 C5 33 5 33 5 36 C5.66 36 6.32 36 7 36 C11 42.75 11 42.75 11 45 C11.66 45 12.32 45 13 45 C14.66666667 46.66666667 16.33333333 48.33333333 18 50 C21.30353279 52.31247295 24.00882053 53.4298315 28 54 C28 54.33 28 54.66 28 55 C21.65445683 55.45325308 17.28974119 54.66302875 12 51 C9.5 48.25 9.5 48.25 8 46 C8.33 46.66 8.66 47.32 9 48 C9.5099099 53.58393133 9.73870063 58.44052088 7.3125 63.5625 C4.25676438 66.78341052 1.65266229 68.74379118 -2.796875 69.43359375 C-12.17297095 69.44599599 -18.40102423 67.7159847 -25.3125 61.25 C-30.20280021 56.03822587 -33.7052674 49.90520696 -34.25 42.6875 C-33.88716594 37.33569763 -32.41893949 34.28050637 -28.4375 30.6875 C-23.66869844 27.386022 -19.69869773 27.43411533 -14 28 C-7.02653851 29.80793446 -2.15962542 33.06470612 3 38 C2.72285156 37.28714844 2.44570312 36.57429688 2.16015625 35.83984375 C1.79792969 34.88207031 1.43570313 33.92429688 1.0625 32.9375 C0.70285156 31.99777344 0.34320313 31.05804688 -0.02734375 30.08984375 C-1.86872201 24.24032486 -2.15643086 18.47697953 -2.1875 12.375 C-2.20167969 11.10398437 -2.21585938 9.83296875 -2.23046875 8.5234375 C-2.01275665 5.1950254 -1.44240483 2.97602893 0 0 Z " fill="#E9EDF0" transform="translate(62,22)"/>
<path d="M0 0 C-0.78375 0.886875 -1.5675 1.77375 -2.375 2.6875 C-6.49570734 7.68371173 -7.25502877 11.49676647 -7 18 C-5.02 14.7 -3.04 11.4 -1 8 C0.32 8.33 1.64 8.66 3 9 C2.505 9.845625 2.01 10.69125 1.5 11.5625 C-2.17477403 20.11375141 -0.62329293 31.28748774 2 40 C2.39638672 41.36898437 2.39638672 41.36898437 2.80078125 42.765625 C3.51346069 45.1840064 4.2465737 47.59405868 5 50 C4.53851563 49.61328125 4.07703125 49.2265625 3.6015625 48.828125 C-3.71455935 42.98679451 -11.1823622 39.16714422 -20.73828125 39.6171875 C-24.31417745 40.22243418 -26.36163189 41.55468322 -29 44 C-31.93362786 48.4004418 -32.62136088 51.76281548 -32 57 C-29.57061809 65.01117607 -24.64935094 72.08012177 -17.375 76.375 C-12.50131563 78.72158877 -8.38153595 80.24908801 -3 81 C-3 81.33 -3 81.66 -3 82 C-11.43435936 82.6422101 -17.02409081 81.93246104 -24 77 C-24.33 78.65 -24.66 80.3 -25 82 C-23.02 82.66 -21.04 83.32 -19 84 C-19.66 85.32 -20.32 86.64 -21 88 C-31.46519255 80.5792271 -39.18117439 73.15077094 -42.734375 60.35546875 C-43.75799827 53.85546099 -42.28591123 48.64066505 -39 43 C-35.82004444 38.63853229 -32.92824777 34.8167265 -27.8828125 32.6796875 C-24.71635794 31.21647599 -24.71635794 31.21647599 -23.609375 27.78515625 C-23.32578125 26.55667969 -23.0421875 25.32820313 -22.75 24.0625 C-20.88005011 16.26284059 -20.88005011 16.26284059 -19 13 C-18.3503125 11.77023438 -18.3503125 11.77023438 -17.6875 10.515625 C-15.76496779 7.64962791 -13.71668072 5.86836414 -11 3.75 C-10.13375 3.06421875 -9.2675 2.3784375 -8.375 1.671875 C-5.11595511 -0.62232107 -3.85335133 -1.28445044 0 0 Z " fill="#0C89F3" transform="translate(61,11)"/>
<path d="M0 0 C3.81335693 3.38965061 4.86768072 5.46509638 5.3125 10.625 C5.17021048 18.39400803 1.15432133 24.64169723 -4 30.20703125 C-10.10444449 35.67957035 -16.79424628 38.35172265 -24.9765625 38.21484375 C-29.26815764 37.75917245 -32.1113516 35.72495001 -35.375 33.0625 C-38.00761944 28.1010249 -37.87010381 23.48165402 -37 18 C-33.74088559 8.92443688 -27.8559843 3.23732286 -20 -2 C-13.02876573 -3.36690868 -5.91483852 -4.60042996 0 0 Z " fill="#F5F9FB" transform="translate(169,53)"/>
<path d="M0 0 C0.99 0.495 0.99 0.495 2 1 C1.52820313 1.76570313 1.52820313 1.76570313 1.046875 2.546875 C-6.18130327 14.82606941 -9.31475656 27.54278768 -6.45703125 41.6875 C-4.90791481 46.2064695 -2.37937344 50.81031328 2 53 C6.63296842 53.56522215 10.04870127 53.52228166 14.1875 51.25 C15.115625 50.5075 16.04375 49.765 17 49 C18.99318491 47.65650021 20.99234355 46.32177659 23 45 C22.95359375 46.02480469 22.9071875 47.04960938 22.859375 48.10546875 C22.82183989 49.46611656 22.78544159 50.82679605 22.75 52.1875 C22.71648437 52.86103516 22.68296875 53.53457031 22.6484375 54.22851562 C22.57815346 57.83057254 22.87325656 59.80148945 24.828125 62.86328125 C27.00586474 65.13976615 27.00586474 65.13976615 30 67 C29.505 68.485 29.505 68.485 29 70 C26.8125 70.375 26.8125 70.375 24 70 C20.64459862 66.64459862 18.33569254 63.61421058 17 59 C17 57.68 17 56.36 17 55 C16.2575 55.495 15.515 55.99 14.75 56.5 C9.83440811 58.95193008 4.3354287 58.67442217 -1 58 C-5.02968968 55.77955875 -6.87217873 53.03166135 -9 49 C-12.26620152 49.74549964 -12.26620152 49.74549964 -13.9375 52.9375 C-16.03470918 56.05153788 -16.63022943 56.76128643 -20 58 C-22.83984375 58.265625 -22.83984375 58.265625 -25.9375 58.25 C-26.95714844 58.25515625 -27.97679688 58.2603125 -29.02734375 58.265625 C-32.05332204 57.99523535 -34.25825647 57.27241136 -37 56 C-37.04125 56.825 -37.0825 57.65 -37.125 58.5 C-38.16839577 62.6735831 -40.02407091 64.98922492 -42.72265625 68.265625 C-44.19767115 69.90939954 -44.19767115 69.90939954 -44 72 C-40.37 73.98 -36.74 75.96 -33 78 C-33.495 79.98 -33.495 79.98 -34 82 C-34.83144531 81.47599609 -34.83144531 81.47599609 -35.6796875 80.94140625 C-36.40414062 80.48636719 -37.12859375 80.03132813 -37.875 79.5625 C-38.59429687 79.11003906 -39.31359375 78.65757813 -40.0546875 78.19140625 C-44.87758667 75.23762262 -49.44288428 75.47218711 -55 76 C-62.64662573 78.23082578 -68.46458949 84.30137874 -73.8125 89.9375 C-76 92 -76 92 -79 92 C-79.268125 92.53625 -79.53625 93.0725 -79.8125 93.625 C-81.20833333 96.41666667 -82.60416667 99.20833333 -84 102 C-84.66 102 -85.32 102 -86 102 C-86.18175781 102.63808594 -86.36351562 103.27617188 -86.55078125 103.93359375 C-86.80214844 104.75988281 -87.05351563 105.58617187 -87.3125 106.4375 C-87.55613281 107.26121094 -87.79976562 108.08492188 -88.05078125 108.93359375 C-88.52064453 109.95646484 -88.52064453 109.95646484 -89 111 C-90.485 111.495 -90.485 111.495 -92 112 C-90.93930306 105.92509933 -89.3716857 101.39030951 -86.203125 96.109375 C-84.83889591 93.86381306 -84.83889591 93.86381306 -83.8125 90.625 C-80.85947052 83.29393263 -73.51950437 77.46827927 -68 72 C-68.61875 71.855625 -69.2375 71.71125 -69.875 71.5625 C-72 71 -72 71 -74 70 C-74 68.02 -74 66.04 -74 64 C-73.34773438 64.3609375 -72.69546875 64.721875 -72.0234375 65.09375 C-65.40947245 68.68548764 -65.40947245 68.68548764 -58 69 C-58 68.67 -58 68.34 -58 68 C-57.34773438 67.97421875 -56.69546875 67.9484375 -56.0234375 67.921875 C-50.29408013 67.5500583 -46.47587377 66.91638955 -42 63 C-39.83502743 59.66756781 -39.75854244 56.92418641 -39.8125 53 C-39.82216797 51.453125 -39.82216797 51.453125 -39.83203125 49.875 C-39.97550208 47.41931318 -40.2953959 45.34492245 -41 43 C-39.29115995 44.62339805 -37.62553283 46.29319053 -36 48 C-36 48.66 -36 49.32 -36 50 C-30.57386162 52.19978583 -25.93541852 53.71944467 -20 53 C-17.65738392 51.62073227 -17.65738392 51.62073227 -16 50 C-15.34 50 -14.68 50 -14 50 C-13.690625 49.05125 -13.38125 48.1025 -13.0625 47.125 C-12 44 -12 44 -11 42 C-10.88377789 40.57331061 -10.82143112 39.14198693 -10.7890625 37.7109375 C-10.76070313 36.85113281 -10.73234375 35.99132813 -10.703125 35.10546875 C-10.6517177 33.30878376 -10.60725607 31.51188433 -10.5703125 29.71484375 C-10.36019015 23.82266289 -9.3013763 19.42721474 -7 14 C-6.71125 12.824375 -6.4225 11.64875 -6.125 10.4375 C-4.73690957 6.19611259 -2.72602072 3.51513198 0 0 Z " fill="#125D93" transform="translate(110,23)"/>
<path d="M0 0 C0.66 0 1.32 0 2 0 C2.20753906 0.54527344 2.41507813 1.09054688 2.62890625 1.65234375 C6.90293438 12.11387704 13.29567191 19.17017176 22.80078125 25.12890625 C28.975223 27.57455547 37.12306405 26.91630747 43.3359375 24.9375 C50.17215111 21.70391824 55.65937059 17.31365654 61 12 C61 15 61 15 59.125 17.1875 C57 19 57 19 55 19 C55 19.66 55 20.32 55 21 C47.4217311 27.90399353 39.32412433 32 29 32 C29 32.66 29 33.32 29 34 C31.54406781 33.57397439 34.08462785 33.13462329 36.625 32.6875 C37.33785156 32.56955078 38.05070312 32.45160156 38.78515625 32.33007812 C43.33983092 31.515251 46.85157984 30.12404095 51 28 C51.66 28.33 52.32 28.66 53 29 C51.08588443 29.98414433 49.1686033 30.96213349 47.25 31.9375 C46.18265625 32.48277344 45.1153125 33.02804688 44.015625 33.58984375 C36.82128171 36.95403796 28.03096056 37.37140258 20.36328125 35.28125 C18.13374813 34.31628628 16.08750862 33.24132922 14 32 C13.23300781 31.56816406 12.46601562 31.13632813 11.67578125 30.69140625 C7.6589903 28.3290004 7.6589903 28.3290004 6 27 C6 26.34 6 25.68 6 25 C5.34 25 4.68 25 4 25 C2.2856382 23.04072937 0.61594832 21.04119788 -1 19 C-3.91691325 20.06069573 -6.40556976 21.24830801 -9.0625 22.875 C-19.13208022 28.77100421 -29.95276752 30.16841228 -41.375 30.0625 C-42.30183594 30.05798828 -43.22867188 30.05347656 -44.18359375 30.04882812 C-46.45579709 30.03711574 -48.72786388 30.02071372 -51 30 C-51.33 29.01 -51.66 28.02 -52 27 C-50.61941406 26.94392578 -50.61941406 26.94392578 -49.2109375 26.88671875 C-40.17583283 26.41748215 -31.81193374 25.15885588 -23 23 C-23 22.01 -23 21.02 -23 20 C-22.40832031 19.75765625 -21.81664063 19.5153125 -21.20703125 19.265625 C-16.56564904 17.29701264 -12.87409746 15.287113 -9 12 C-8.34 12 -7.68 12 -7 12 C-6.7215625 11.42765625 -6.443125 10.8553125 -6.15625 10.265625 C-5.01726208 8.03382434 -3.80063617 5.89129126 -2.5 3.75 C-2.0771875 3.04359375 -1.654375 2.3371875 -1.21875 1.609375 C-0.8165625 1.07828125 -0.414375 0.5471875 0 0 Z " fill="#0052A8" transform="translate(101,166)"/>
<path d="M0 0 C0.33 0 0.66 0 1 0 C1 1.98 1 3.96 1 6 C3.97 5.01 6.94 4.02 10 3 C9.67 3.99 9.34 4.98 9 6 C8.01 6 7.02 6 6 6 C4.81527579 8.8036686 3.82996436 11.56869598 2.95703125 14.48828125 C-1.52581193 29.46679139 -1.52581193 29.46679139 -8 34 C-10.98570253 35.11904321 -13.82944608 35.71242141 -17 36 C-16.01 33.69 -15.02 31.38 -14 29 C-14.94875 29.185625 -15.8975 29.37125 -16.875 29.5625 C-21.64479926 30.26768593 -26.24924288 29.62132638 -31 29 C-33.58125644 24.29300296 -33.23677715 20.06620568 -32 15 C-30.4375 11.9375 -30.4375 11.9375 -28 10 C-24.25521824 9.61260878 -21.10920886 9.85177239 -17.3984375 10.34765625 C-16.52445313 10.45980469 -15.65046875 10.57195312 -14.75 10.6875 C-13.53570312 10.87892578 -13.53570312 10.87892578 -12.296875 11.07421875 C-9.34278642 10.97876351 -8.22921938 9.85291953 -6 8 C-5.34 8 -4.68 8 -4 8 C-3.71125 7.236875 -3.4225 6.47375 -3.125 5.6875 C-2 3 -2 3 0 0 Z " fill="#000002" transform="translate(90,129)"/>
<path d="M0 0 C0.33 0 0.66 0 1 0 C1 1.65 1 3.3 1 5 C2.98 4.34 4.96 3.68 7 3 C6.835 3.680625 6.67 4.36125 6.5 5.0625 C5.24351453 12.44435214 6.26429913 17.6053591 10 24 C15.62350454 31.87847418 22.69155784 36.8097279 32.3125 38.625 C33.6428125 38.810625 33.6428125 38.810625 35 39 C35 39.33 35 39.66 35 40 C26.56564064 40.6422101 20.97590919 39.93246104 14 35 C13.67 36.65 13.34 38.3 13 40 C14.98 40.66 16.96 41.32 19 42 C18.34 43.32 17.68 44.64 17 46 C6.53480745 38.5792271 -1.18117439 31.15077094 -4.734375 18.35546875 C-5.75811076 11.8547467 -4.00340372 6.76234434 -1 1 C-0.67 0.67 -0.34 0.34 0 0 Z " fill="#0063B7" transform="translate(23,53)"/>
<path d="M0 0 C24.38688544 -0.29264263 24.38688544 -0.29264263 34 6 C33.67 7.32 33.34 8.64 33 10 C32.44570312 9.65066406 31.89140625 9.30132812 31.3203125 8.94140625 C30.59585938 8.48636719 29.87140625 8.03132813 29.125 7.5625 C28.40570313 7.11003906 27.68640625 6.65757813 26.9453125 6.19140625 C22.12241333 3.23762262 17.55711572 3.47218711 12 4 C4.35337427 6.23082578 -1.46458949 12.30137874 -6.8125 17.9375 C-9 20 -9 20 -12 20 C-12.268125 20.53625 -12.53625 21.0725 -12.8125 21.625 C-14.20833333 24.41666667 -15.60416667 27.20833333 -17 30 C-17.66 30 -18.32 30 -19 30 C-19.18175781 30.63808594 -19.36351562 31.27617188 -19.55078125 31.93359375 C-19.80214844 32.75988281 -20.05351562 33.58617187 -20.3125 34.4375 C-20.55613281 35.26121094 -20.79976562 36.08492187 -21.05078125 36.93359375 C-21.52064453 37.95646484 -21.52064453 37.95646484 -22 39 C-23.485 39.495 -23.485 39.495 -25 40 C-23.93930306 33.92509933 -22.3716857 29.39030951 -19.203125 24.109375 C-17.83889591 21.86381306 -17.83889591 21.86381306 -16.8125 18.625 C-14.32188632 12.50644038 -8.08623547 5.44907732 -2.1796875 2.67578125 C-1.46039063 2.45277344 -0.74109375 2.22976562 0 2 C0 1.34 0 0.68 0 0 Z " fill="#0577E1" transform="translate(43,95)"/>
<path d="M0 0 C-0.763125 0.78375 -1.52625 1.5675 -2.3125 2.375 C-9.30360063 10.95048605 -8.58417601 22.5212355 -9 33 C-14.28 32.67 -19.56 32.34 -25 32 C-22.34017541 19.33416863 -22.34017541 19.33416863 -19 15 C-18.85949219 14.17757813 -18.71898437 13.35515625 -18.57421875 12.5078125 C-17.46130519 7.64733287 -12.80451593 4.92121207 -9 2 C-3.70588235 -1.23529412 -3.70588235 -1.23529412 0 0 Z " fill="#00060B" transform="translate(61,11)"/>
<path d="M0 0 C0.33 0 0.66 0 1 0 C1.44455628 1.91039052 1.85473053 3.82880655 2.25 5.75 C2.59804687 7.35101563 2.59804687 7.35101563 2.953125 8.984375 C3 12 3 12 1.1875 14.234375 C0.465625 14.81703125 -0.25625 15.3996875 -1 16 C-1.7425 16.825 -2.485 17.65 -3.25 18.5 C-15.75136122 29.86487384 -34.18216644 29.58344468 -50 29 C-50.33 28.01 -50.66 27.02 -51 26 C-49.61941406 25.94392578 -49.61941406 25.94392578 -48.2109375 25.88671875 C-39.17583283 25.41748215 -30.81193374 24.15885588 -22 22 C-22 21.01 -22 20.02 -22 19 C-21.40832031 18.75765625 -20.81664063 18.5153125 -20.20703125 18.265625 C-15.56564904 16.29701264 -11.87409746 14.287113 -8 11 C-7.34 11 -6.68 11 -6 11 C-5.7525 10.484375 -5.505 9.96875 -5.25 9.4375 C-3.60418384 6.22815849 -1.8023904 3.12414336 0 0 Z " fill="#0765C4" transform="translate(100,167)"/>
<path d="M0 0 C0 1.80693984 -0.04476627 3.61578489 -0.17578125 5.41796875 C-0.52022621 12.39543947 0.38438598 16.68791226 5 22 C9.85894863 27.11050183 15.9979592 30.83536028 21.81640625 34.75390625 C30.40758294 40.81516588 30.40758294 40.81516588 32 44 C33.03988656 56.34226018 33.03988656 56.34226018 30.125 60.6875 C28.77903748 62.15222392 27.40659718 63.59340282 26 65 C22.375 65.125 22.375 65.125 19 65 C19 64.67 19 64.34 19 64 C20.423125 63.6596875 20.423125 63.6596875 21.875 63.3125 C25.12620857 62.33740589 25.12620857 62.33740589 26.171875 59.76171875 C27.03345374 56.88843493 27.33293442 54.49506907 27.375 51.5 C27.41753906 50.12328125 27.41753906 50.12328125 27.4609375 48.71875 C26.69244118 44.18592422 24.17232338 41.83816506 20.51953125 39.2265625 C19.62621094 38.69804687 18.73289063 38.16953125 17.8125 37.625 C9.10185919 32.25924526 -1.0498296 25.95888031 -5 16 C-5.31690852 9.59844795 -4.02502624 4.93390314 0 0 Z " fill="#0B4B79" transform="translate(120,101)"/>
<path d="M0 0 C0.33 0.66 0.66 1.32 1 2 C0.15984779 3.8696345 -0.77434736 5.69736559 -1.75 7.5 C-9.07154294 21.9217369 -10.37729105 37.30668653 -6.10546875 53.0703125 C-2.20064219 63.41879277 4.59098706 72.14045234 14.625 76.875 C21.43769121 79.82261138 27.48155207 80.18210563 34.8125 80.1875 C35.67681641 80.19974609 36.54113281 80.21199219 37.43164062 80.22460938 C42.98438086 80.23718162 47.6642041 79.53033187 53 78 C54.99601306 77.6435691 56.994845 77.30077325 59 77 C49.92346622 84.50074667 36.43653723 83.82903084 25.25537109 83.21582031 C20.39066111 82.7503079 16.2894694 81.26782382 12 79 C11.28972656 78.649375 10.57945313 78.29875 9.84765625 77.9375 C-0.22845197 72.36759757 -6.60144196 62.67925436 -9.96875 51.8984375 C-14.84532293 32.97914069 -10.20223543 17.58878314 -1 1 C-0.67 0.67 -0.34 0.34 0 0 Z " fill="#002956" transform="translate(25,115)"/>
<path d="M0 0 C0.33 0 0.66 0 1 0 C0.979375 0.94875 0.95875 1.8975 0.9375 2.875 C0.91354051 5.86993673 1.24274349 8.66640237 1.6875 11.625 C2.41864358 18.02744649 0.70236964 23.86377495 -1 30 C-1.66 30 -2.32 30 -3 30 C-3.103125 30.763125 -3.20625 31.52625 -3.3125 32.3125 C-4.06368323 35.24894352 -4.78309658 36.04912499 -7 38 C-7.66 38.99 -8.32 39.98 -9 41 C-12.33135891 40.40300869 -14.21275667 39.27987719 -16.75 37.0625 C-17.36359375 36.53785156 -17.9771875 36.01320312 -18.609375 35.47265625 C-20 34 -20 34 -20 32 C-19.34 32 -18.68 32 -18 32 C-18 31.34 -18 30.68 -18 30 C-16.4609375 28.7734375 -16.4609375 28.7734375 -14.375 27.375 C-8.1524006 22.87354512 -2.97035593 16.62416528 -1.3671875 8.984375 C-1.20476562 7.91703125 -1.04234375 6.8496875 -0.875 5.75 C-0.70742187 4.67234375 -0.53984375 3.5946875 -0.3671875 2.484375 C-0.24601562 1.66453125 -0.12484375 0.8446875 0 0 Z " fill="#000508" transform="translate(181,63)"/>
<path d="M0 0 C0 0.33 0 0.66 0 1 C-1.98 1 -3.96 1 -6 1 C-4.906875 1.28875 -3.81375 1.5775 -2.6875 1.875 C1 3 1 3 4 5 C4 5.66 4 6.32 4 7 C5.32 7.66 6.64 8.32 8 9 C8 10.65 8 12.3 8 14 C5.46948519 12.83207009 3.60634723 11.67355624 1.4375 9.875 C-3.3643032 7.25583462 -7.63350893 7.14661304 -13 8 C-15.90809543 9.85716187 -15.90809543 9.85716187 -18 12 C-19.32 12 -20.64 12 -22 12 C-22.2475 12.70125 -22.495 13.4025 -22.75 14.125 C-24.16559954 17.38087894 -25.92637798 20.12368559 -28 23 C-28.33 23 -28.66 23 -29 23 C-29.4548051 16.63272857 -28.74892404 12.26109508 -25 7 C-17.38708224 -1.40558599 -10.77534106 -2.81849967 0 0 Z " fill="#0EA2F7" transform="translate(82,7)"/>
<path d="M0 0 C0.33 0 0.66 0 1 0 C1.01458252 0.64437012 1.02916504 1.28874023 1.04418945 1.95263672 C1.11955474 4.92730199 1.2159163 7.90095095 1.3125 10.875 C1.33505859 11.88820312 1.35761719 12.90140625 1.38085938 13.9453125 C1.75956695 24.68683641 3.84877784 32.84725532 11 41 C11.45246094 41.556875 11.90492187 42.11375 12.37109375 42.6875 C16.92635124 47.84926486 22.37533545 50.63671835 29.28125 51.17919922 C37.92715993 51.51442837 46.43432539 51.21660274 55 50 C55 50.66 55 51.32 55 52 C31.7327478 56.91091593 31.7327478 56.91091593 23 54 C22.566875 53.54625 22.13375 53.0925 21.6875 52.625 C18.54372869 49.59766466 14.5833282 48.19791493 10.5 46.8125 C3.81323258 43.34970973 0.81410979 37.57670678 -1.40673828 30.58642578 C-2.49732209 25.83183941 -2.3908006 21.10463719 -2.3125 16.25 C-2.31572266 15.23550781 -2.31894531 14.22101563 -2.32226562 13.17578125 C-2.28655499 8.23472855 -2.0569889 4.55925782 0 0 Z " fill="#0E3D74" transform="translate(23,137)"/>
<path d="M0 0 C0 3.55376308 -0.82884918 4.57072053 -2.75 7.5 C-5.64769365 12.11862439 -7.40870914 16.630522 -8.9453125 21.84765625 C-9.29335938 22.55792969 -9.64140625 23.26820313 -10 24 C-11.32 24.33 -12.64 24.66 -14 25 C-14.33 32.92 -14.66 40.84 -15 49 C-15.99 49 -16.98 49 -18 49 C-18.81393517 46.14152758 -19.12830714 43.59761568 -19.1328125 40.62890625 C-19.13410156 39.80712891 -19.13539062 38.98535156 -19.13671875 38.13867188 C-19.13285156 37.28853516 -19.12898438 36.43839844 -19.125 35.5625 C-19.12886719 34.71623047 -19.13273437 33.86996094 -19.13671875 32.99804688 C-19.13025437 28.87054048 -19.041272 25.02459894 -18 21 C-16.68 21 -15.36 21 -14 21 C-13.01 18.03 -12.02 15.06 -11 12 C-10.34 12 -9.68 12 -9 12 C-8.9175 11.278125 -8.835 10.55625 -8.75 9.8125 C-7.62574899 5.59655872 -5.52284957 2.88832892 -1.75 0.6875 C-1.1725 0.460625 -0.595 0.23375 0 0 Z " fill="#0053A8" transform="translate(35,113)"/>
<path d="M0 0 C0.33 0 0.66 0 1 0 C1.01458252 0.6798999 1.02916504 1.3597998 1.04418945 2.06030273 C1.1193642 5.18656282 1.21579232 8.31183482 1.3125 11.4375 C1.33505859 12.50677734 1.35761719 13.57605469 1.38085938 14.67773438 C1.58019061 20.6033085 2.17654611 25.64864214 4.36791992 31.17993164 C5 33 5 33 5 36 C5.66 36 6.32 36 7 36 C11 42.75 11 42.75 11 45 C11.66 45 12.32 45 13 45 C14.66666667 46.66666667 16.33333333 48.33333333 18 50 C21.30353279 52.31247295 24.00882053 53.4298315 28 54 C28 54.33 28 54.66 28 55 C21.7293551 55.44790321 17.16325184 54.78638468 12 51 C10.42163577 49.08541617 9.26835988 47.14645519 8 45 C7.34 45 6.68 45 6 45 C3.15508053 39.85205047 1.53508694 34.6401509 0 29 C-0.20882812 28.30132812 -0.41765625 27.60265625 -0.6328125 26.8828125 C-2.84884105 18.61172003 -3.76897868 7.83708265 0 0 Z " fill="#BCC4CA" transform="translate(62,22)"/>
<path d="M0 0 C0.66 0 1.32 0 2 0 C2.20753906 0.54527344 2.41507812 1.09054688 2.62890625 1.65234375 C6.52700103 11.19370545 12.23630821 18.48881238 21 24 C21.58394531 24.37898438 22.16789062 24.75796875 22.76953125 25.1484375 C26.03971564 26.39694923 29.01527285 26.22522835 32.5 26.1875 C33.8096875 26.18105469 35.119375 26.17460937 36.46875 26.16796875 C39.20519436 26.03780602 41.41465687 25.82440789 44 25 C41.11160138 28.01968947 39.83963274 28.9510528 35.515625 29.203125 C34.0938237 29.22442539 32.67192432 29.23980699 31.25 29.25 C30.19425781 29.2809375 30.19425781 29.2809375 29.1171875 29.3125 C24.33114171 29.34808398 21.20662782 28.51339398 17 26 C17 25.34 17 24.68 17 24 C16.05125 23.7525 15.1025 23.505 14.125 23.25 C11 22 11 22 9.625 19.875 C9.41875 19.25625 9.2125 18.6375 9 18 C8.34 18 7.68 18 7 18 C7 17.34 7 16.68 7 16 C6.01 16 5.02 16 4 16 C1.18150494 10.45108785 -0.5326514 6.258654 0 0 Z " fill="#0B407D" transform="translate(101,166)"/>
<path d="M0 0 C0.33 0 0.66 0 1 0 C2.09470436 5.93514412 2.46478319 9.74308758 -1 15 C-1.721875 15.886875 -2.44375 16.77375 -3.1875 17.6875 C-5.30844083 19.90383382 -5.30844083 19.90383382 -5 23 C-16.385 22.505 -16.385 22.505 -28 22 C-28.33 22.66 -28.66 23.32 -29 24 C-29 23.34 -29 22.68 -29 22 C-29.928125 21.7834375 -29.928125 21.7834375 -30.875 21.5625 C-33 21 -33 21 -35 20 C-35 18.02 -35 16.04 -35 14 C-34.02160156 14.54140625 -34.02160156 14.54140625 -33.0234375 15.09375 C-26.40947245 18.68548764 -26.40947245 18.68548764 -19 19 C-19 18.67 -19 18.34 -19 18 C-18.34773438 17.97421875 -17.69546875 17.9484375 -17.0234375 17.921875 C-11.29408013 17.5500583 -7.47587377 16.91638955 -3 13 C-1.23309551 10.09016778 -0.67255568 7.62229775 -0.375 4.25 C-0.30023438 3.45078125 -0.22546875 2.6515625 -0.1484375 1.828125 C-0.09945312 1.22484375 -0.05046875 0.6215625 0 0 Z " fill="#0068BE" transform="translate(71,73)"/>
<path d="M0 0 C0.66 0.33 1.32 0.66 2 1 C1.83886719 1.51175781 1.67773438 2.02351563 1.51171875 2.55078125 C-0.26464405 11.05291466 0.50886418 20.72640953 3 29 C3.26425781 29.91265625 3.52851562 30.8253125 3.80078125 31.765625 C4.51346069 34.1840064 5.2465737 36.59405868 6 39 C4.6900326 38.19574094 3.40259007 37.35475777 2.125 36.5 C1.40570313 36.0359375 0.68640625 35.571875 -0.0546875 35.09375 C-4.54330149 30.26263133 -4.3863988 22.79142705 -4.375 16.5 C-4.37628906 15.7582251 -4.37757812 15.0164502 -4.37890625 14.25219727 C-4.26905264 8.5841253 -3.23588256 4.75270251 0 0 Z " fill="#086DBC" transform="translate(60,22)"/>
<path d="M0 0 C4.297422 1.84175229 7.28261543 4.22763811 9.0625 8.625 C11.92905548 12.1388422 15.14509622 12.06176577 19.50390625 12.640625 C22 13 22 13 24 14 C32.97274108 14.5167027 41.38023759 14.49750944 49.99609375 11.65625 C52 11 52 11 54 11 C54 10.34 54 9.68 54 9 C55.8125 7.9375 55.8125 7.9375 58 7 C58.99 7.33 59.98 7.66 61 8 C50.16889046 17.28380818 35.908346 18.24894923 22.21875 17.26171875 C13.36315915 16.21713321 7.61698469 11.27942737 1.58203125 5.0859375 C0 3 0 3 0 0 Z " fill="#9EA4A9" transform="translate(30,172)"/>
<path d="M0 0 C3.4835571 1.41519507 6.74084051 3.12999045 10 5 C10 5.66 10 6.32 10 7 C10.66 7 11.32 7 12 7 C16.67980259 13.19999324 19.896331 20.63584266 23.19580078 27.640625 C24.8470219 31.06415126 25.77267854 32.84845236 29 35 C30.9896995 35.39013716 32.99019869 35.73202649 35 36 C35 36.33 35 36.66 35 37 C27.74562888 37.61477721 27.74562888 37.61477721 24.41796875 34.87109375 C21.92218422 31.90760162 20.51109484 29.30450719 19 25.75 C18.49082031 24.60917969 17.98164062 23.46835938 17.45703125 22.29296875 C16.97621094 21.20628906 16.49539062 20.11960938 16 19 C12.83803396 11.90921236 9.31544127 7.16407704 2 4 C-2.00063143 3.090466 -5.31189345 2.98922015 -8.8984375 5.13671875 C-10.76236698 6.61208256 -10.76236698 6.61208256 -13 9 C-13 7.68 -13 6.36 -13 5 C-12.34 5 -11.68 5 -11 5 C-10.87625 4.360625 -10.7525 3.72125 -10.625 3.0625 C-10.41875 2.381875 -10.2125 1.70125 -10 1 C-6.7308989 -0.63455055 -3.53107099 -0.54592216 0 0 Z " fill="#2698DB" transform="translate(110,130)"/>
<path d="M0 0 C0.639375 0.66 1.27875 1.32 1.9375 2 C10.50717273 10.49704838 18.44127907 18.02694455 31.0625 18.25 C37.06419584 18.20185805 42.32261658 16.84740254 48 15 C49.216875 14.608125 50.43375 14.21625 51.6875 13.8125 C52.450625 13.544375 53.21375 13.27625 54 13 C51.75178853 15.51397448 49.65302641 16.80123321 46.5625 18.125 C45.80066406 18.45757812 45.03882813 18.79015625 44.25390625 19.1328125 C36.53465006 22.10278629 26.78893813 22.62952732 19.125 19.3125 C17.73058997 18.57736076 16.35487947 17.80567403 15 17 C14.23300781 16.56816406 13.46601562 16.13632813 12.67578125 15.69140625 C8.6589903 13.3290004 8.6589903 13.3290004 7 12 C7 11.34 7 10.68 7 10 C6.34 10 5.68 10 5 10 C3.71569138 8.52304509 2.43419292 7.04193862 1.21875 5.5078125 C-0.06784671 3.86186905 -0.06784671 3.86186905 -2 2 C-1.34 1.34 -0.68 0.68 0 0 Z " fill="#003367" transform="translate(100,181)"/>
<path d="M0 0 C1 2 1 2 0.8125 5.0625 C1.22044971 13.62944382 5.81575878 20.28249396 12 26 C17.50142469 29.95304929 23.33613293 32.07015808 30 33 C30 33.33 30 33.66 30 34 C21.54461864 34.64381076 15.91437641 34.02984388 9 29 C8.33871094 28.54238281 7.67742188 28.08476563 6.99609375 27.61328125 C2.43492576 24.1376522 -0.0293781 20.69015959 -1 15 C-1.27000692 10.31818185 -1.33018725 5.67976923 -1 1 C-0.67 0.67 -0.34 0.34 0 0 Z " fill="#0B4F8D" transform="translate(28,59)"/>
<path d="M0 0 C0.96826073 3.1782604 0.99070388 5.82100379 0.8125 9.125 C0.73457609 14.40257373 1.9312394 18.24314106 4.125 23.00390625 C5 25 5 25 5 27 C5.66 27 6.32 27 7 27 C8.110682 28.20739046 9.16465549 29.46734831 10.1875 30.75 C13.46505307 34.63348725 16.45827088 36.77547961 21 39 C20.34 40.32 19.68 41.64 19 43 C8.5978027 35.62389646 0.6063764 28.11972962 -2.69921875 15.28515625 C-3.54184749 9.40487612 -2.47876297 5.35412802 0 0 Z " fill="#003B69" transform="translate(21,56)"/>
<path d="M0 0 C0.33 0.66 0.66 1.32 1 2 C0.15984779 3.8696345 -0.77434736 5.69736559 -1.75 7.5 C-9.28154277 22.33538774 -10.07424102 37.81216737 -6 54 C-7.921875 53.2734375 -7.921875 53.2734375 -10 52 C-14.451114 41.46009798 -12.54253058 27.46551518 -9 17 C-2.9562753 2.9562753 -2.9562753 2.9562753 0 0 Z " fill="#002A52" transform="translate(25,115)"/>
<path d="M0 0 C0.84139757 2.86460547 1.01500321 5.15860156 0.8125 8.125 C0.78521025 13.64662537 2.1074561 18.28354647 5 23 C6.92869973 24.8457024 8.87459903 26.29287284 11.10546875 27.75390625 C13.36595221 29.24069846 15.09329967 31.09329967 17 33 C20.00778521 34.00259507 22.53820647 34.30314642 25.6875 34.5625 C26.68136719 34.64628906 27.67523438 34.73007813 28.69921875 34.81640625 C29.83810547 34.90728516 29.83810547 34.90728516 31 35 C31 35.33 31 35.66 31 36 C21.89046058 36.5548958 15.06812217 36.08340681 7.80859375 30.234375 C1.84710467 24.65714396 -2.62263262 18.00011777 -3.25 9.6875 C-2.98129892 5.72415901 -1.98898226 3.39784469 0 0 Z " fill="#B3BABF" transform="translate(31,55)"/>
<path d="M0 0 C1.32 0.33 2.64 0.66 4 1 C3.67 1.66 3.34 2.32 3 3 C2.01 3 1.02 3 0 3 C-0.12375 3.5775 -0.2475 4.155 -0.375 4.75 C-1 7 -1 7 -2.02734375 8.62109375 C-3.46113042 12.12782501 -3.2486751 15.58725851 -3.1875 19.3125 C-3.1865332 20.41368164 -3.1865332 20.41368164 -3.18554688 21.53710938 C-3.14898033 26.11605366 -2.74594843 30.48253633 -2 35 C-2.66 35 -3.32 35 -4 35 C-4 34.01 -4 33.02 -4 32 C-4.66 32 -5.32 32 -6 32 C-6 30.35 -6 28.7 -6 27 C-6.99 26.67 -7.98 26.34 -9 26 C-8.505 17.09 -8.505 17.09 -8 8 C-7.34 8.66 -6.68 9.32 -6 10 C-4.02 6.7 -2.04 3.4 0 0 Z " fill="#0B88DF" transform="translate(60,19)"/>
<path d="M0 0 C1 2 1 2 0 5.375 C-1.48244985 10.95719046 -1.23147806 16.37983166 0 22 C1.67595228 25.00745443 1.67595228 25.00745443 5 26 C10.12340741 26.49336516 15.03510282 26.43689965 20 25 C17.78770401 27.54414039 16.34873329 28.54746847 13 29 C6.10335679 29.44494472 2.11845849 28.54400561 -3.375 24.0625 C-5.9767723 19.1591599 -5.82842117 14.42239314 -5 9 C-3.67296988 5.7306386 -2.03445926 2.87730667 0 0 Z " fill="#D0D5D9" transform="translate(137,62)"/>
<path d="M0 0 C0.33 0 0.66 0 1 0 C1.0093457 0.589021 1.01869141 1.17804199 1.02832031 1.78491211 C1.08263875 4.50323016 1.1661584 7.21993848 1.25 9.9375 C1.26417969 10.86369141 1.27835937 11.78988281 1.29296875 12.74414062 C1.52265725 19.29026301 2.90024224 24.22942105 6 30 C14.48184321 30.85987376 14.48184321 30.85987376 23 31 C19.99623702 34.14029766 18.11020874 35.18220165 13.75 35.375 C9.98701411 35.32660147 8.97909478 34.98683745 5.625 32.875 C1.07367178 27.89021195 -1.12155568 22.70435479 -1.1328125 15.99609375 C-1.13410156 15.25552734 -1.13539062 14.51496094 -1.13671875 13.75195312 C-1.13285156 12.98818359 -1.12898438 12.22441406 -1.125 11.4375 C-1.12886719 10.66986328 -1.13273437 9.90222656 -1.13671875 9.11132812 C-1.130981 5.82072861 -1.04747031 3.14241093 0 0 Z " fill="#ABB7C1" transform="translate(103,42)"/>
<path d="M0 0 C0.33 0 0.66 0 1 0 C1.22862483 4.70824258 0.4451982 8.34141807 -1 12.8125 C-3.80794799 22.35552608 -3.32083871 28.6390525 -0.734375 38.1796875 C0.11875887 41.45608458 0.618258 44.64067041 1 48 C-3.49376812 45.00415459 -3.92737097 41.13617547 -5 36 C-5.43297953 32.21744274 -5.52296678 28.49264813 -5.5 24.6875 C-5.49935547 23.68581787 -5.49871094 22.68413574 -5.49804688 21.65209961 C-5.33601521 13.57207698 -3.86121548 7.18461881 0 0 Z " fill="#A6ACB0" transform="translate(29,124)"/>
<path d="M0 0 C0 3.55376308 -0.82884918 4.57072053 -2.75 7.5 C-5.64769365 12.11862439 -7.40870914 16.630522 -8.9453125 21.84765625 C-9.29335938 22.55792969 -9.64140625 23.26820313 -10 24 C-12.0546875 24.62109375 -12.0546875 24.62109375 -14 25 C-14.33 25.99 -14.66 26.98 -15 28 C-15.5326514 21.741346 -13.81849506 17.54891215 -11 12 C-10.34 12 -9.68 12 -9 12 C-8.9175 11.278125 -8.835 10.55625 -8.75 9.8125 C-7.62574899 5.59655872 -5.52284957 2.88832892 -1.75 0.6875 C-0.88375 0.3471875 -0.88375 0.3471875 0 0 Z " fill="#0957AA" transform="translate(35,113)"/>
<path d="M0 0 C0.33 0 0.66 0 1 0 C1.01417969 0.56847656 1.02835938 1.13695313 1.04296875 1.72265625 C1.41262187 7.70704057 2.81784324 11.63653587 7 16 C7.99 16.66 8.98 17.32 10 18 C9.67 18.99 9.34 19.98 9 21 C6.8125 21.375 6.8125 21.375 4 21 C0.64459862 17.64459862 -1.66430746 14.61421058 -3 10 C-3 8.68 -3 7.36 -3 6 C-3.66 5.67 -4.32 5.34 -5 5 C-3.625 3.5 -3.625 3.5 -2 2 C-1.34 2 -0.68 2 0 2 C0 1.34 0 0.68 0 0 Z " fill="#0A578D" transform="translate(130,72)"/>
<path d="M0 0 C0.33 0 0.66 0 1 0 C0.70792724 2.67733363 0.37765315 5.33421308 0 8 C-0.09925781 8.7321875 -0.19851562 9.464375 -0.30078125 10.21875 C-1.60339391 17.69232566 -5.25919258 23.11863835 -10.4375 28.5625 C-13.7638541 30.42850352 -16.24890721 30.29420336 -20 30 C-19.41347656 29.72414062 -18.82695313 29.44828125 -18.22265625 29.1640625 C-13.39258449 26.63442914 -9.23926009 23.47977738 -7.3125 18.25 C-6.87149276 16.83442121 -6.43428208 15.41765644 -6 14 C-5.32823828 12.24389851 -4.6402087 10.4939486 -3.9375 8.75 C-3.61652344 7.94046875 -3.29554687 7.1309375 -2.96484375 6.296875 C-2.06104423 4.14531987 -1.06986615 2.07316285 0 0 Z " fill="#043B6A" transform="translate(96,135)"/>
<path d="M0 0 C0 0.66 0 1.32 0 2 C-1.65 2.66 -3.3 3.32 -5 4 C-4.01 4.66 -3.02 5.32 -2 6 C-7.48269069 7.15664737 -12.80339274 7.11416255 -18.375 7.0625 C-19.30183594 7.05798828 -20.22867188 7.05347656 -21.18359375 7.04882812 C-23.45579709 7.03711574 -25.72786388 7.02071372 -28 7 C-28.33 6.01 -28.66 5.02 -29 4 C-28.05640625 3.96261719 -27.1128125 3.92523438 -26.140625 3.88671875 C-18.55920097 3.4985133 -11.64127814 2.69369383 -4.29296875 0.62109375 C-2 0 -2 0 0 0 Z " fill="#0058B3" transform="translate(78,189)"/>
<path d="M0 0 C0.33 0 0.66 0 1 0 C0.96519531 0.78503906 0.93039063 1.57007813 0.89453125 2.37890625 C0.73083809 8.7317599 0.71189507 13.48068101 4 19 C8.25324935 22.98742127 12.5372998 23.19964311 18.1875 23.5625 C20.09595703 23.68818359 20.09595703 23.68818359 22.04296875 23.81640625 C23.01878906 23.87699219 23.99460937 23.93757813 25 24 C20.00917811 26.98494132 14.63610764 26.62623418 9 26 C5.4375 24.1875 5.4375 24.1875 3 22 C2.4225 21.525625 1.845 21.05125 1.25 20.5625 C-2.61996925 15.72503844 -2.6576757 9.94809642 -2 4 C-0.984375 1.69140625 -0.984375 1.69140625 0 0 Z " fill="#177EE2" transform="translate(57,141)"/>
<path d="M0 0 C0.66 0.33 1.32 0.66 2 1 C3.53668865 1.22467831 5.07968054 1.40796805 6.625 1.5625 C7.44226563 1.64628906 8.25953125 1.73007813 9.1015625 1.81640625 C9.72804688 1.87699219 10.35453125 1.93757812 11 2 C9.5625 4.03125 9.5625 4.03125 7 6 C3.16567804 6.33742033 -0.64087323 5.66717693 -4.4453125 5.19921875 C-9.35971501 4.60662712 -9.35971501 4.60662712 -13.5625 6.96875 C-14.036875 7.6390625 -14.51125 8.309375 -15 9 C-14.6655974 5.90677596 -14.4404882 4.41112232 -12.125 2.25 C-8.04306458 -0.15113848 -4.65454171 -0.16925606 0 0 Z " fill="#12528B" transform="translate(73,135)"/>
<path d="M0 0 C4.41299628 0.10763406 6.65959855 1.26325981 9.75 4.25 C14.33257245 9.24733066 15.33711499 13.15150996 15.203125 19.83984375 C14.95371165 22.49225884 14.21934437 24.63752028 13 27 C12.67 27 12.34 27 12 27 C11.96261719 26.13117188 11.92523438 25.26234375 11.88671875 24.3671875 C11.56762257 14.59961288 11.56762257 14.59961288 6.5390625 6.57421875 C4.47756372 4.78926249 2.4440242 3.2220121 0 2 C0 1.34 0 0.68 0 0 Z " fill="#14B8E6" transform="translate(166,45)"/>
<path d="M0 0 C0 3 0 3 -1.875 5.1875 C-4 7 -4 7 -6 7 C-6 7.66 -6 8.32 -6 9 C-13.5782689 15.90399353 -21.67587567 20 -32 20 C-32 20.66 -32 21.32 -32 22 C-33.32 22 -34.64 22 -36 22 C-36.33 20.68 -36.66 19.36 -37 18 C-35.96359375 17.87882812 -34.9271875 17.75765625 -33.859375 17.6328125 C-32.48953562 17.46392819 -31.11974651 17.29463589 -29.75 17.125 C-29.06808594 17.04636719 -28.38617188 16.96773437 -27.68359375 16.88671875 C-24.11907743 16.43682834 -21.02235681 16.01989193 -18 14 C-17.67 13.34 -17.34 12.68 -17 12 C-15.845 11.46375 -14.69 10.9275 -13.5 10.375 C-8.19869788 7.85880225 -4.21319659 4.01814119 0 0 Z " fill="#0D66C2" transform="translate(162,178)"/>
<path d="M0 0 C-0.45890625 0.49628906 -0.9178125 0.99257812 -1.390625 1.50390625 C-5.25719293 5.78474931 -8.33517615 9.88353821 -11 15 C-13.35479531 12.85927699 -14.64062915 10.8605891 -16 8 C-14.37680325 6.68527053 -12.751385 5.37328338 -11.125 4.0625 C-10.22007813 3.33160156 -9.31515625 2.60070312 -8.3828125 1.84765625 C-5.02582143 -0.75538765 -4.0096701 -1.20290103 0 0 Z " fill="#000306" transform="translate(112,12)"/>
<path d="M0 0 C0.99 0.33 1.98 0.66 3 1 C-6.24970831 7.54247661 -13.49659317 9.19958688 -25 8 C-27.88623725 6.96951962 -29.56426283 5.90106316 -32 4 C-29.18632643 2.87453057 -28.03905599 2.98641531 -25.125 4 C-19.36088518 5.86671552 -12.88443132 4.94639362 -7 4 C-6.34 3.34 -5.68 2.68 -5 2 C-2.375 1.875 -2.375 1.875 0 2 C0 1.34 0 0.68 0 0 Z " fill="#C0C7CC" transform="translate(151,185)"/>
<path d="M0 0 C2 0 2 0 4.3125 2.25 C5.6428125 3.61125 5.6428125 3.61125 7 5 C7.79019531 5.56074219 8.58039063 6.12148437 9.39453125 6.69921875 C12.6916616 9.61077764 14.38092795 12.69011665 16.375 16.5625 C16.92607422 17.57086914 16.92607422 17.57086914 17.48828125 18.59960938 C18.41293032 20.3564426 19.21569661 22.17618338 20 24 C19.67 24.99 19.34 25.98 19 27 C18.3503125 25.6078125 18.3503125 25.6078125 17.6875 24.1875 C16.27206495 21.13436004 16.27206495 21.13436004 14.60546875 19.609375 C12.61167245 17.61072761 11.1869061 15.41242659 9.625 13.0625 C7.06620279 9.32730662 4.60591488 6.75746432 1 4 C0.1875 1.75 0.1875 1.75 0 0 Z " fill="#119AE1" transform="translate(159,95)"/>
<path d="M0 0 C0.66 0 1.32 0 2 0 C6 6.75 6 6.75 6 9 C6.66 9 7.32 9 8 9 C9.66666667 10.66666667 11.33333333 12.33333333 13 14 C16.30353279 16.31247295 19.00882053 17.4298315 23 18 C23 18.33 23 18.66 23 19 C16.84962795 19.43931229 11.96208215 18.96277394 7 15 C5.61893861 12.72023322 4.89354184 10.53953995 4 8 C3.01 7.34 2.02 6.68 1 6 C0.3125 2.875 0.3125 2.875 0 0 Z " fill="#D0D3D6" transform="translate(67,58)"/>
<path d="M0 0 C0.66 0.33 1.32 0.66 2 1 C1.69707031 1.48726562 1.39414063 1.97453125 1.08203125 2.4765625 C-5.3701716 13.39567501 -8.76804828 24.30591516 -9 37 C-9.33 37 -9.66 37 -10 37 C-10.54050279 21.62569832 -10.54050279 21.62569832 -7 14 C-6.71125 12.824375 -6.4225 11.64875 -6.125 10.4375 C-4.73690957 6.19611259 -2.72602072 3.51513198 0 0 Z " fill="#2D7DB6" transform="translate(110,23)"/>
<path d="M0 0 C3.4835571 1.41519507 6.74084051 3.12999045 10 5 C7.53286391 5.88112003 6.45320262 6.20868816 4.0234375 5.08984375 C3.02183594 4.55037109 3.02183594 4.55037109 2 4 C-1.83242237 3.33803614 -5.48819662 3.11631859 -8.91796875 5.12109375 C-10.7587233 6.61779474 -10.7587233 6.61779474 -13 9 C-13 7.68 -13 6.36 -13 5 C-12.34 5 -11.68 5 -11 5 C-10.87625 4.360625 -10.7525 3.72125 -10.625 3.0625 C-10.41875 2.381875 -10.2125 1.70125 -10 1 C-6.7308989 -0.63455055 -3.53107099 -0.54592216 0 0 Z " fill="#1A92D6" transform="translate(110,130)"/>
<path d="M0 0 C0.33 0 0.66 0 1 0 C2.41855346 7.69095252 1.37821506 11.43267741 -3 18 C-5.94614035 20.13595175 -7.94994324 21.10343843 -11.6171875 20.7421875 C-14.10701062 20.24140155 -16.55141538 19.6726349 -19 19 C-19 18.67 -19 18.34 -19 18 C-18.34773438 17.97421875 -17.69546875 17.9484375 -17.0234375 17.921875 C-11.29408013 17.5500583 -7.47587377 16.91638955 -3 13 C-1.23309551 10.09016778 -0.67255568 7.62229775 -0.375 4.25 C-0.30023438 3.45078125 -0.22546875 2.6515625 -0.1484375 1.828125 C-0.09945312 1.22484375 -0.05046875 0.6215625 0 0 Z " fill="#3370A4" transform="translate(71,73)"/>
<path d="M0 0 C0.33 0.66 0.66 1.32 1 2 C0.15984779 3.8696345 -0.77434736 5.69736559 -1.75 7.5 C-6.51264664 16.76070179 -8.50099602 25.7362316 -10 36 C-10.33 36 -10.66 36 -11 36 C-12.06115544 23.12464737 -7.94874184 11.77054985 -1 1 C-0.67 0.67 -0.34 0.34 0 0 Z " fill="#002E59" transform="translate(25,115)"/>
<path d="M0 0 C0.33 0 0.66 0 1 0 C1.14695313 1.55847656 1.14695313 1.55847656 1.296875 3.1484375 C2.07828142 10.65967289 2.98488716 17.2829803 6.29296875 24.1796875 C6.52628906 24.78039062 6.75960937 25.38109375 7 26 C6.67 26.66 6.34 27.32 6 28 C2.84711194 25.21737782 0.32638082 22.67857593 -0.49511719 18.45361328 C-0.58882139 15.63593808 -0.52508521 12.87755981 -0.375 10.0625 C-0.34792969 9.09248047 -0.32085937 8.12246094 -0.29296875 7.12304688 C-0.22272145 4.74634651 -0.12444649 2.37437529 0 0 Z " fill="#19619F" transform="translate(59,33)"/>
<path d="M0 0 C2.7168884 1.02242312 3.8228733 1.6965053 5.30859375 4.2421875 C5.68113281 5.11101562 6.05367188 5.97984375 6.4375 6.875 C8.39301192 11.08873467 10.19850193 13.25447361 14 16 C14.8125 18.25 14.8125 18.25 15 20 C11.6673468 18.57904457 9.76393478 16.8834126 7.4375 14.125 C6.85871094 13.44695312 6.27992187 12.76890625 5.68359375 12.0703125 C5.12800781 11.38710937 4.57242188 10.70390625 4 10 C3.44828125 9.32195312 2.8965625 8.64390625 2.328125 7.9453125 C0.57892104 5.38324317 0.34619926 3.04655352 0 0 Z " fill="#B8BDC1" transform="translate(104,168)"/>
<path d="M0 0 C2.74362012 2.74362012 2.33130133 4.42199614 2.375 8.25 C2.28123746 15.32125816 0.93181349 18.06818651 -4 23 C-7.625 23.125 -7.625 23.125 -11 23 C-11 22.67 -11 22.34 -11 22 C-10.0925 21.814375 -9.185 21.62875 -8.25 21.4375 C-4.84501727 19.93144994 -3.44302818 18.66093669 -1.74609375 15.3515625 C-0.17496623 10.39963179 -0.1551851 5.15990455 0 0 Z " fill="#115489" transform="translate(150,143)"/>
<path d="M0 0 C0.33 0 0.66 0 1 0 C1 1.65 1 3.3 1 5 C2.98 4.34 4.96 3.68 7 3 C6.0360896 5.15026166 5.28912076 6.74701933 3.5 8.3125 C1.23647745 10.85896287 0.7985305 13.74445256 0 17 C-0.66 16.67 -1.32 16.34 -2 16 C-2.2358396 10.22192976 -1.86783046 5.48675196 0 0 Z " fill="#0173D6" transform="translate(23,53)"/>
<path d="M0 0 C0 0.66 0 1.32 0 2 C-9.54527595 4.01467914 -19.1962399 5.93444563 -29 5 C-29.99 4.34 -30.98 3.68 -32 3 C-30.73285156 2.95101562 -29.46570312 2.90203125 -28.16015625 2.8515625 C-26.46091904 2.77645809 -24.76170124 2.70091368 -23.0625 2.625 C-21.81629883 2.57859375 -21.81629883 2.57859375 -20.54492188 2.53125 C-15.52686212 2.29694371 -10.87341071 1.67053659 -6.00561523 0.41552734 C-4 0 -4 0 0 0 Z " fill="#073F7E" transform="translate(78,187)"/>
<path d="M0 0 C5.625 -0.25 5.625 -0.25 9 2 C9.36328125 5.1171875 9.36328125 5.1171875 9.3125 8.875 C9.30863281 10.10992187 9.30476562 11.34484375 9.30078125 12.6171875 C9.02643534 15.70268821 8.62700706 17.42012427 7 20 C5.69485845 17.38971691 6.04201341 15.59329979 6.1875 12.6875 C6.2336376 8.77093007 6.21696226 7.35437169 4.125 3.9375 C3.42375 3.298125 2.7225 2.65875 2 2 C1.34 1.34 0.68 0.68 0 0 Z " fill="#05406D" transform="translate(141,140)"/>
<path d="M0 0 C0 0.66 0 1.32 0 2 C-5.68567876 4.90770954 -10.10569223 5.3864851 -16.4375 5.1875 C-17.67790039 5.16719727 -17.67790039 5.16719727 -18.94335938 5.14648438 C-20.9625264 5.11146992 -22.98135318 5.05767562 -25 5 C-25 4.67 -25 4.34 -25 4 C-21.92382812 3.70703125 -21.92382812 3.70703125 -18.84765625 3.4140625 C-18.23792969 3.27742188 -17.62820312 3.14078125 -17 3 C-16.67 2.34 -16.34 1.68 -16 1 C-15.32453125 1.01160156 -14.6490625 1.02320312 -13.953125 1.03515625 C-13.06109375 1.04417969 -12.1690625 1.05320312 -11.25 1.0625 C-10.36828125 1.07410156 -9.4865625 1.08570312 -8.578125 1.09765625 C-5.61586765 0.98544953 -2.93496964 0 0 0 Z " fill="#1A76B2" transform="translate(156,89)"/>
<path d="M0 0 C8.51885256 0.0288286 14.60566587 1.11937559 21 7 C22.62621828 8.95234335 23.7725136 10.75850309 25 13 C20.60249328 12.49259538 18.13051078 9.91706686 15 7 C15 6.34 15 5.68 15 5 C13.43840941 4.51787786 11.87568072 4.03944127 10.3125 3.5625 C9.44238281 3.29566406 8.57226562 3.02882813 7.67578125 2.75390625 C5.12974079 2.03655471 2.5996577 1.482459 0 1 C0 0.67 0 0.34 0 0 Z " fill="#19A3DE" transform="translate(71,7)"/>
<path d="M0 0 C0.33 0.66 0.66 1.32 1 2 C0.525625 3.010625 0.05125 4.02125 -0.4375 5.0625 C-2.9044633 10.49434579 -2.67348811 15.72697764 -1 21.375 C-0.67 22.24125 -0.34 23.1075 0 24 C0 24.99 0 25.98 0 27 C-3.10957348 24.20138386 -4.73971481 22.41154663 -5.5078125 18.24609375 C-5.78852289 10.91955256 -4.21526354 5.961587 0 0 Z " fill="#C2C9CE" transform="translate(137,62)"/>
<path d="M0 0 C0.66 0 1.32 0 2 0 C3.078125 1.64453125 3.078125 1.64453125 4.25 3.8125 C6.65340314 7.75994993 8.44905398 9.59970892 13 11 C16.0199213 11.2128797 18.97948313 11.18123101 22 11 C21.67 11.66 21.34 12.32 21 13 C10.1324025 13.62397689 10.1324025 13.62397689 5.9375 11.3125 C3.99029233 8.98841342 2.49426247 6.63274816 1 4 C0.34 3.67 -0.32 3.34 -1 3 C-0.67 2.01 -0.34 1.02 0 0 Z " fill="#004372" transform="translate(100,68)"/>
<path d="M0 0 C0.66 0.33 1.32 0.66 2 1 C1.54109375 1.51949219 1.0821875 2.03898438 0.609375 2.57421875 C-6.33522786 10.06042398 -6.33522786 10.06042398 -11 19 C-12.0662628 15.8153343 -12.04185251 14.20145054 -10.5625 11.1875 C-8.0202244 6.3993979 -4.23005797 3.28548191 0 0 Z " fill="#027AC8" transform="translate(65,7)"/>
<path d="M0 0 C0.99 0 1.98 0 3 0 C4.0735426 9.26995516 4.0735426 9.26995516 1.44140625 13.51171875 C-0.29362612 15.45621177 -2.054275 17.26770912 -4 19 C-4.66 18.67 -5.32 18.34 -6 18 C-5.360625 17.21625 -4.72125 16.4325 -4.0625 15.625 C-1.21139304 11.99631842 -0.80781416 9.92457403 -0.4375 5.375 C-0.35371094 4.37210938 -0.26992187 3.36921875 -0.18359375 2.3359375 C-0.12300781 1.56507813 -0.06242188 0.79421875 0 0 Z " fill="#B4BEC6" transform="translate(152,147)"/>
<path d="M0 0 C1.66627298 0.03622333 3.33405374 0.04899842 5 0 C2.46733249 2.46319284 1.32059082 2.99617889 -2.27734375 3.0390625 C-3.48519531 2.90242187 -4.69304687 2.76578125 -5.9375 2.625 C-10.24968702 2.1545796 -13.7838057 1.89594912 -18 3 C-17.67 2.01 -17.34 1.02 -17 0 C-12.03832567 -2.48083716 -5.23916831 -0.95257606 0 0 Z " fill="#B9C0C8" transform="translate(79,134)"/>
<path d="M0 0 C0.66 0 1.32 0 2 0 C2.07476562 0.64066406 2.14953125 1.28132813 2.2265625 1.94140625 C3.23396413 8.56852873 5.14229311 12.38670603 10 17 C8.68 17 7.36 17 6 17 C1.84558957 12.72340103 0 8.94448598 0 3 C-0.66 2.67 -1.32 2.34 -2 2 C-1.34 1.34 -0.68 0.68 0 0 Z " fill="#004373" transform="translate(127,75)"/>
<path d="M0 0 C0.99 0 1.98 0 3 0 C3.22262303 6.7281627 2.95021536 12.53991163 1 19 C0.67 19 0.34 19 0 19 C0 12.73 0 6.46 0 0 Z " fill="#005DBC" transform="translate(17,134)"/>
<path d="M0 0 C0 3 0 3 -0.9375 5.1875 C-2.30649668 8.81131474 -2.60834303 12.14870642 -3 16 C-2.34 16 -1.68 16 -1 16 C-0.34 18.64 0.32 21.28 1 24 C-2.35709451 20.86671179 -4.88236094 18.3763091 -5.1171875 13.6328125 C-4.56769759 7.94293306 -3.63138126 4.45137058 0 0 Z " fill="#003E6B" transform="translate(120,101)"/>
<path d="M0 0 C5.28 0 10.56 0 16 0 C12.04725898 3.95274102 12.04725898 3.95274102 8.8359375 4.09765625 C7.61777344 4.08025391 7.61777344 4.08025391 6.375 4.0625 C5.14910156 4.04896484 5.14910156 4.04896484 3.8984375 4.03515625 C2.95871094 4.01775391 2.95871094 4.01775391 2 4 C1.34 2.68 0.68 1.36 0 0 Z " fill="#CCD2D9" transform="translate(110,73)"/>
<path d="M0 0 C0.66 0 1.32 0 2 0 C3.93242285 3.34520258 4.5463853 6.44767482 5.125 10.25 C5.29257813 11.32765625 5.46015625 12.4053125 5.6328125 13.515625 C5.75398438 14.33546875 5.87515625 15.1553125 6 16 C5.34 16 4.68 16 4 16 C1.18150494 10.45108785 -0.5326514 6.258654 0 0 Z " fill="#0A4989" transform="translate(101,166)"/>
<path d="M0 0 C1 2 1 2 0.8125 5.0625 C1.05096341 10.07023169 2.76440707 13.58592782 5 18 C5.37382813 18.74894531 5.74765625 19.49789062 6.1328125 20.26953125 C6.41898438 20.84058594 6.70515625 21.41164063 7 22 C5.125 21.75 5.125 21.75 3 21 C1.875 19.0625 1.875 19.0625 1 17 C0.34 16.34 -0.32 15.68 -1 15 C-1.23046875 11.77734375 -1.23046875 11.77734375 -1.1875 7.9375 C-1.18105469 6.66777344 -1.17460937 5.39804688 -1.16796875 4.08984375 C-1 1 -1 1 0 0 Z " fill="#1C548B" transform="translate(28,59)"/>
<path d="M0 0 C3.58707329 3.38779144 6.49689539 6.73545141 9 11 C9 11.99 9 12.98 9 14 C7.68 13.34 6.36 12.68 5 12 C5 11.34 5 10.68 5 10 C4.34 10 3.68 10 3 10 C2.49596232 8.70990357 1.99690074 7.41786211 1.5 6.125 C1.2215625 5.40570313 0.943125 4.68640625 0.65625 3.9453125 C0 2 0 2 0 0 Z " fill="#15477E" transform="translate(105,174)"/>
<path d="M0 0 C13.6332574 -0.738041 13.6332574 -0.738041 20 4 C19.67 5.32 19.34 6.64 19 8 C18.44570312 7.65066406 17.89140625 7.30132812 17.3203125 6.94140625 C16.59585938 6.48636719 15.87140625 6.03132813 15.125 5.5625 C14.40570313 5.11003906 13.68640625 4.65757813 12.9453125 4.19140625 C9.95496353 2.35996762 7.85283687 1.78528369 4.375 1.4375 C3.55773438 1.35371094 2.74046875 1.26992187 1.8984375 1.18359375 C1.27195313 1.12300781 0.64546875 1.06242187 0 1 C0 0.67 0 0.34 0 0 Z " fill="#1A96E8" transform="translate(57,97)"/>
<path d="M0 0 C0.97839844 0.433125 0.97839844 0.433125 1.9765625 0.875 C8.85497436 3.79680327 13.63508353 4.73292152 21 3 C17.69740192 6.0016419 15.47738368 6.38487514 11.0625 6.3125 C10.04285156 6.30863281 9.02320312 6.30476563 7.97265625 6.30078125 C4.96490363 5.99644886 2.73119218 5.26248479 0 4 C0 2.68 0 1.36 0 0 Z " fill="#004272" transform="translate(73,75)"/>
<path d="M0 0 C-1.55888097 3.8263442 -4.07127956 6.14637496 -7 9 C-8.14814997 11.29629994 -8.30769809 13.07698086 -8.5625 15.625 C-8.64628906 16.44226563 -8.73007813 17.25953125 -8.81640625 18.1015625 C-8.87699219 18.72804688 -8.93757813 19.35453125 -9 20 C-9.33 20 -9.66 20 -10 20 C-10.62460568 10.24921136 -10.62460568 10.24921136 -8.25 5.5 C-3.3 0 -3.3 0 0 0 Z " fill="#1E7BB9" transform="translate(129,95)"/>
<path d="M0 0 C3.33333333 3.33333333 6.66666667 6.66666667 10 10 C9.67 10.99 9.34 11.98 9 13 C8.34 12.67 7.68 12.34 7 12 C7 11.34 7 10.68 7 10 C6.34 10 5.68 10 5 10 C3.71569138 8.52304509 2.43419292 7.04193862 1.21875 5.5078125 C-0.06784671 3.86186905 -0.06784671 3.86186905 -2 2 C-1.34 1.34 -0.68 0.68 0 0 Z " fill="#00264C" transform="translate(100,181)"/>
<path d="M0 0 C1.47137249 2.94274499 0.65656327 5.09763446 0.125 8.3125 C-0.05804688 9.44300781 -0.24109375 10.57351562 -0.4296875 11.73828125 C-0.91298442 14.50234242 -1.43289224 17.25210512 -2 20 C-2.33 20 -2.66 20 -3 20 C-3.20092379 6.40415704 -3.20092379 6.40415704 -2 1 C-1.34 0.67 -0.68 0.34 0 0 Z " fill="#0888DD" transform="translate(182,142)"/>
<path d="M0 0 C0.78503906 0.2165625 1.57007813 0.433125 2.37890625 0.65625 C10.58633024 2.8909153 10.58633024 2.8909153 19 3 C19.66 2.34 20.32 1.68 21 1 C21.99 1.33 22.98 1.66 24 2 C19.72455696 5.92175676 15.77670693 5.47749608 10.21875 5.37109375 C5.86307852 4.86892289 3.48470575 3.59326939 0 1 C0 0.67 0 0.34 0 0 Z " fill="#CFD4D8" transform="translate(44,85)"/>
<path d="M0 0 C0.33 0 0.66 0 1 0 C1.33 4.29 1.66 8.58 2 13 C2.33 13 2.66 13 3 13 C3.33 16.63 3.66 20.26 4 24 C3.34 24 2.68 24 2 24 C2 22.35 2 20.7 2 19 C1.01 18.67 0.02 18.34 -1 18 C-0.505 9.09 -0.505 9.09 0 0 Z " fill="#037ACE" transform="translate(52,27)"/>
<path d="M0 0 C3.01140123 1.50570062 3.5627182 4.10144829 4.90234375 7.08984375 C5.99389198 9.31735191 5.99389198 9.31735191 9 11 C10.9896995 11.39013716 12.99019869 11.73202649 15 12 C15 12.33 15 12.66 15 13 C7.78164826 13.61172472 7.78164826 13.61172472 4.125 10.75 C1.0367179 6.75339964 0 5.12437464 0 0 Z " fill="#1D88D3" transform="translate(130,154)"/>
<path d="M0 0 C1.06671952 3.20015856 0.94845472 4.88544294 0.5625 8.1875 C0.46066406 9.08855469 0.35882813 9.98960938 0.25390625 10.91796875 C0.17011719 11.60503906 0.08632812 12.29210937 0 13 C-0.33 13 -0.66 13 -1 13 C-1.33 10.69 -1.66 8.38 -2 6 C-2.556875 6.495 -3.11375 6.99 -3.6875 7.5 C-6.38162983 9.24754367 -7.85375007 9.26218749 -11 9 C-9.948125 8.1646875 -9.948125 8.1646875 -8.875 7.3125 C-5.88655739 4.90875268 -2.94059762 2.46189568 0 0 Z " fill="#2F71A1" transform="translate(132,68)"/>
<path d="M0 0 C0.33 0 0.66 0 1 0 C1.33 4.95 1.66 9.9 2 15 C1.01 15.495 1.01 15.495 0 16 C-0.53012738 14.71211992 -1.0488329 13.41953322 -1.5625 12.125 C-1.85253906 11.40570313 -2.14257812 10.68640625 -2.44140625 9.9453125 C-3 8 -3 8 -2 6 C-1.32136945 4.0040278 -0.65358081 2.00431449 0 0 Z " fill="#0069C2" transform="translate(24,63)"/>
<path d="M0 0 C0.33 0 0.66 0 1 0 C0.98839844 0.80824219 0.97679687 1.61648437 0.96484375 2.44921875 C0.95582031 3.51785156 0.94679687 4.58648437 0.9375 5.6875 C0.92589844 6.74324219 0.91429687 7.79898438 0.90234375 8.88671875 C0.99134575 11.72410262 1.35060162 14.2438919 2 17 C1.01 16.67 0.02 16.34 -1 16 C-2.22485812 13.55028376 -2.16722808 11.85765539 -2.1875 9.125 C-2.20167969 8.26132813 -2.21585938 7.39765625 -2.23046875 6.5078125 C-1.98859252 3.8758712 -1.32983541 2.26019456 0 0 Z " fill="#1E79CA" transform="translate(57,141)"/>
<path d="M0 0 C2.0460668 3.06910021 2.50913306 4.80688201 3.125 8.375 C3.29257813 9.31085938 3.46015625 10.24671875 3.6328125 11.2109375 C3.97990588 13.84737023 4.06758274 16.34496388 4 19 C3.01 19 2.02 19 1 19 C0.67 12.73 0.34 6.46 0 0 Z " fill="#0982C5" transform="translate(179,122)"/>
<path d="M0 0 C-6.6514301 5.05508688 -11.42122562 7.34315098 -20 7 C-16.99559979 4.99706653 -15.29006055 4.50728374 -11.8125 3.875 C-10.91144531 3.70742187 -10.01039062 3.53984375 -9.08203125 3.3671875 C-8.39496094 3.24601563 -7.70789063 3.12484375 -7 3 C-7 2.34 -7 1.68 -7 1 C-3.375 -1.125 -3.375 -1.125 0 0 Z " fill="#B3BAC0" transform="translate(91,180)"/>
<path d="M0 0 C0.66 0 1.32 0 2 0 C2.391875 0.721875 2.78375 1.44375 3.1875 2.1875 C5.59027323 5.91594122 8.31101619 7.56387861 12 10 C10.203125 10.61328125 10.203125 10.61328125 8 11 C4.75 9.1875 4.75 9.1875 2 7 C2 6.34 2 5.68 2 5 C1.34 5 0.68 5 0 5 C0 3.35 0 1.7 0 0 Z " fill="#D9E8F1" transform="translate(55,157)"/>
<path d="M0 0 C4.474976 0.28412546 8.60276134 1.14911399 12.9375 2.25 C12.6075 2.91 12.2775 3.57 11.9375 4.25 C6.24698637 3.7118629 0.58884116 3.1099867 -5.0625 2.25 C-3.0625 0.25 -3.0625 0.25 0 0 Z " fill="#002E5A" transform="translate(68.0625,136.75)"/>
<path d="M0 0 C2.875 1.25 2.875 1.25 6 3 C7.98867713 3.69971973 9.98608051 4.37664397 12 5 C12 5.33 12 5.66 12 6 C5.49686791 6.46450943 1.5825192 5.32575612 -4 2 C-2.1796875 0.921875 -2.1796875 0.921875 0 0 Z " fill="#B9C0C8" transform="translate(78,71)"/>
<path d="M0 0 C0.66 0.33 1.32 0.66 2 1 C-2.625 6.75 -2.625 6.75 -6 9 C-8.33199388 9.07905064 -10.66832622 9.08798769 -13 9 C-12.195625 8.6596875 -12.195625 8.6596875 -11.375 8.3125 C-9.24883707 7.13751522 -7.74501873 5.96615738 -5.9375 4.375 C-3 2 -3 2 0 2 C0 1.34 0 0.68 0 0 Z " fill="#1260AA" transform="translate(89,156)"/>
<path d="M0 0 C0.75 1.5625 0.75 1.5625 1 4 C-0.48408972 7.45262323 -2.34532957 10.34532957 -5 13 C-6.32 13 -7.64 13 -9 13 C-9 12.34 -9 11.68 -9 11 C-5.53846154 8 -5.53846154 8 -3 8 C-2.690625 7.05125 -2.38125 6.1025 -2.0625 5.125 C-1 2 -1 2 0 0 Z " fill="#2286C5" transform="translate(99,65)"/>
<path d="M0 0 C2.59200565 0.44434383 4.86567139 0.94111622 7.28125 2 C10.36141688 3.13293494 13.04341023 3.40945562 16.3125 3.625 C17.91544922 3.73714844 17.91544922 3.73714844 19.55078125 3.8515625 C20.35902344 3.90054688 21.16726562 3.94953125 22 4 C22 4.33 22 4.66 22 5 C6.07061503 5.738041 6.07061503 5.738041 0 1 C0 0.67 0 0.34 0 0 Z " fill="#87949F" transform="translate(119,188)"/>
<path d="M0 0 C0.33 0 0.66 0 1 0 C1.45496035 5.76283104 -0.20900148 10.60568303 -2 16 C-2.33 16 -2.66 16 -3 16 C-3.37952295 9.80112515 -2.8352113 5.5522888 0 0 Z " fill="#AEB6BC" transform="translate(29,124)"/>
<path d="M0 0 C0.99 0.66 1.98 1.32 3 2 C-0.63 2 -4.26 2 -8 2 C-8.66 3.32 -9.32 4.64 -10 6 C-11.625 7.75 -11.625 7.75 -13 9 C-13 7.68 -13 6.36 -13 5 C-12.34 5 -11.68 5 -11 5 C-10.87625 4.360625 -10.7525 3.72125 -10.625 3.0625 C-10.41875 2.381875 -10.2125 1.70125 -10 1 C-6.87293041 -0.5635348 -3.42017557 -0.39958487 0 0 Z " fill="#0967B8" transform="translate(110,130)"/>
<path d="M0 0 C0.33 0 0.66 0 1 0 C1.13277344 0.67546875 1.26554687 1.3509375 1.40234375 2.046875 C1.57894531 2.93890625 1.75554687 3.8309375 1.9375 4.75 C2.11152344 5.63171875 2.28554687 6.5134375 2.46484375 7.421875 C2.92368488 9.63235053 3.43336074 11.81512068 4 14 C3.01 14 2.02 14 1 14 C1 12.68 1 11.36 1 10 C0.34 10 -0.32 10 -1 10 C-1.125 2.25 -1.125 2.25 0 0 Z " fill="#085184" transform="translate(118,107)"/>
<path d="M0 0 C1.92408724 2.88613087 2.96614795 5.61779432 4.13671875 8.859375 C5.44788833 12.11060092 7.18882978 15.00220101 9 18 C8.01 18 7.02 18 6 18 C5.54625 17.071875 5.0925 16.14375 4.625 15.1875 C3.0578367 11.96078611 3.0578367 11.96078611 1 9 C0.5859375 6.73828125 0.5859375 6.73828125 0.375 4.3125 C0.30023437 3.50425781 0.22546875 2.69601563 0.1484375 1.86328125 C0.09945313 1.24839844 0.05046875 0.63351563 0 0 Z " fill="#24446B" transform="translate(24,160)"/>
<path d="M0 0 C0.33 0 0.66 0 1 0 C1.1946838 2.77050026 1.38102792 5.54113002 1.5625 8.3125 C1.61857422 9.09818359 1.67464844 9.88386719 1.73242188 10.69335938 C1.78076172 11.45068359 1.82910156 12.20800781 1.87890625 12.98828125 C1.94960327 14.03302612 1.94960327 14.03302612 2.02172852 15.09887695 C2 17 2 17 1 20 C0.34 20 -0.32 20 -1 20 C-0.67 13.4 -0.34 6.8 0 0 Z " fill="#196399" transform="translate(101,47)"/>
<path d="M0 0 C6.19887485 -0.37952295 10.4477112 0.1647887 16 3 C16 3.99 16 4.98 16 6 C13.0280615 4.87548273 10.66559313 3.77706209 8 2 C5.9507906 1.54860541 5.9507906 1.54860541 3.8125 1.375 C1.9253125 1.189375 1.9253125 1.189375 0 1 C0 0.67 0 0.34 0 0 Z " fill="#1199DB" transform="translate(122,6)"/>
<path d="M0 0 C0.33 0 0.66 0 1 0 C0.36934845 5.7809725 -0.65155132 11.3443706 -2 17 C-2.33 17 -2.66 17 -3 17 C-3.34548714 10.66606918 -2.29342747 5.89738492 0 0 Z " fill="#125388" transform="translate(96,135)"/>
<path d="M0 0 C3.63 0 7.26 0 11 0 C10.67 0.66 10.34 1.32 10 2 C7.49609375 2.4140625 7.49609375 2.4140625 4.4375 2.625 C3.42558594 2.69976562 2.41367188 2.77453125 1.37109375 2.8515625 C0.58863281 2.90054688 -0.19382812 2.94953125 -1 3 C-0.67 2.01 -0.34 1.02 0 0 Z " fill="#075E9A" transform="translate(114,77)"/>
<path d="M0 0 C0.99 0 1.98 0 3 0 C1.125 4.75 1.125 4.75 0 7 C-1.98 7 -3.96 7 -6 7 C-5.071875 6.6596875 -5.071875 6.6596875 -4.125 6.3125 C-1.38589791 4.62070165 -0.94975528 3.00755839 0 0 Z " fill="#1769BB" transform="translate(86,130)"/>
<path d="M0 0 C2.8125 -0.25 2.8125 -0.25 6 0 C7.9375 1.8125 7.9375 1.8125 9 4 C8.67 4.99 8.34 5.98 8 7 C6.66382648 6.02471263 5.3311249 5.04466681 4 4.0625 C3.2575 3.51722656 2.515 2.97195312 1.75 2.41015625 C1.1725 1.94480469 0.595 1.47945312 0 1 C0 0.67 0 0.34 0 0 Z " fill="#B8BFC7" transform="translate(137,132)"/>
<path d="M0 0 C2 2 2 2 2.8125 4.8125 C4.19894605 8.53401308 6.0691335 10.37764577 9 13 C8.67 13.66 8.34 14.32 8 15 C0.10465116 7.38662791 0.10465116 7.38662791 -0.25 2.6875 C-0.1675 1.800625 -0.085 0.91375 0 0 Z " fill="#99A7B5" transform="translate(65,56)"/>
<path d="M0 0 C0.95837449 3.04626176 1.01658162 5.09213636 0.25 8.1875 C0.01023437 9.22970703 0.01023437 9.22970703 -0.234375 10.29296875 C-0.61335938 11.13794922 -0.61335938 11.13794922 -1 12 C-1.99 12.33 -2.98 12.66 -4 13 C-3.27991594 8.39146203 -1.68704061 4.32762591 0 0 Z " fill="#BDCBD4" transform="translate(108,29)"/>
<path d="M0 0 C3.35400549 0.59892955 5.49855497 1.67106842 8 4 C8.75 6.1875 8.75 6.1875 9 8 C4.7257442 6.4169423 2.73468206 3.49431596 0 0 Z " fill="#AEB4B8" transform="translate(110,180)"/>
<path d="M0 0 C1.01054862 3.03164585 1.0265912 4.51750751 0.6875 7.625 C0.60886719 8.42164063 0.53023437 9.21828125 0.44921875 10.0390625 C0.30097656 10.68617187 0.15273438 11.33328125 0 12 C-0.99 12.495 -0.99 12.495 -2 13 C-2.05391993 11.20866022 -2.09275571 9.41686101 -2.125 7.625 C-2.14820313 6.62726562 -2.17140625 5.62953125 -2.1953125 4.6015625 C-2 2 -2 2 0 0 Z " fill="#0290ED" transform="translate(55,28)"/>
<path d="M0 0 C4 2 8 4 12 6 C8.84860486 7.00271664 8.1457197 7.05537349 4.875 5.8125 C2.00950474 4.00599212 1.0799689 3.13190982 0 0 Z " fill="#003B7E" transform="translate(34,183)"/>
<path d="M0 0 C3.36591866 1.44253657 5.51047079 3.33264727 8 6 C6.02 6 4.04 6 2 6 C1.34 4.02 0.68 2.04 0 0 Z " fill="#0D4D7A" transform="translate(138,134)"/>
<path d="M0 0 C2 0 2 0 4.4375 2.25 C6.47004286 4.4312655 8.28819148 6.56743 10 9 C6.11624195 8.42462844 3.82218799 6.66963729 1 4 C0.1875 1.75 0.1875 1.75 0 0 Z " fill="#1DAADB" transform="translate(159,95)"/>
<path d="M0 0 C0.66 0.33 1.32 0.66 2 1 C0.71451591 2.33929505 -0.57858155 3.67128643 -1.875 5 C-2.59429687 5.7425 -3.31359375 6.485 -4.0546875 7.25 C-6 9 -6 9 -8 9 C-6.4169423 4.7257442 -3.49431596 2.73468206 0 0 Z " fill="#D9E9F1" transform="translate(146,53)"/>
<path d="M0 0 C0.33 0 0.66 0 1 0 C2.51708428 9.41002278 2.51708428 9.41002278 0 14 C-0.99 13.67 -1.98 13.34 -3 13 C-2.68289062 12.43796875 -2.36578125 11.8759375 -2.0390625 11.296875 C-0.93125475 8.84803683 -0.61024601 6.91612145 -0.375 4.25 C-0.30023438 3.45078125 -0.22546875 2.6515625 -0.1484375 1.828125 C-0.09945312 1.22484375 -0.05046875 0.6215625 0 0 Z " fill="#3595D5" transform="translate(71,73)"/>
<path d="M0 0 C3 1 3 1 5 4 C5.125 7.1875 5.125 7.1875 5 10 C3 9 3 9 2.1484375 6.93359375 C1.89320312 6.10988281 1.63796875 5.28617188 1.375 4.4375 C1.11460938 3.61121094 0.85421875 2.78492188 0.5859375 1.93359375 C0.39257812 1.29550781 0.19921875 0.65742188 0 0 Z " fill="#002343" transform="translate(16,168)"/>
<path d="M0 0 C1.33333333 0.66666667 2.66666667 1.33333333 4 2 C5.051875 2.474375 6.10375 2.94875 7.1875 3.4375 C10 5 10 5 11 8 C6.40378078 6.5129879 3.53027653 4.20187872 0 1 C0 0.67 0 0.34 0 0 Z " fill="#ACB5BE" transform="translate(126,124)"/>
<path d="M0 0 C0.66 0.33 1.32 0.66 2 1 C-1.75 7.875 -1.75 7.875 -4 9 C-4.66 9.99 -5.32 10.98 -6 12 C-5.54300722 6.97307937 -3.00758252 3.85103739 0 0 Z " fill="#1E89D4" transform="translate(110,23)"/>
<path d="M0 0 C4.875 2.875 4.875 2.875 6 4 C6.04080783 5.99958364 6.04254356 8.00045254 6 10 C4.5 8 4.5 8 3 6 C2.443125 5.29875 1.88625 4.5975 1.3125 3.875 C0 2 0 2 0 0 Z " fill="#26CBF5" transform="translate(139,12)"/>
<path d="M0 0 C1.93816735 0.1141866 3.87555099 0.24173423 5.8125 0.375 C6.89144531 0.44460937 7.97039062 0.51421875 9.08203125 0.5859375 C12 1 12 1 15 3 C15 3.66 15 4.32 15 5 C14.33613281 4.79503906 13.67226562 4.59007812 12.98828125 4.37890625 C12.10527344 4.10949219 11.22226563 3.84007812 10.3125 3.5625 C9.44238281 3.29566406 8.57226562 3.02882813 7.67578125 2.75390625 C5.12974079 2.03655471 2.5996577 1.482459 0 1 C0 0.67 0 0.34 0 0 Z " fill="#1BB2EE" transform="translate(71,7)"/>
<path d="M0 0 C2.3125 0.1875 2.3125 0.1875 5 1 C6.8125 3.5625 6.8125 3.5625 8 6 C4.08597051 4.73058503 2.20927127 3.48832306 0 0 Z " fill="#002144" transform="translate(27,186)"/>
<path d="M0 0 C0.66 0.33 1.32 0.66 2 1 C1.67 2.32 1.34 3.64 1 5 C-1.31 5 -3.62 5 -6 5 C-6 4.34 -6 3.68 -6 3 C-4.03533587 1.93224776 -2.03144641 0.93446535 0 0 Z " fill="#013B70" transform="translate(65,91)"/>
<path d="M0 0 C0 3 0 3 -2.5 5.6875 C-3.325 6.450625 -4.15 7.21375 -5 8 C-4.75 5.125 -4.75 5.125 -4 2 C-1.9375 0.625 -1.9375 0.625 0 0 Z " fill="#1963B2" transform="translate(35,113)"/>
<path d="M0 0 C0.99 0.33 1.98 0.66 3 1 C1.00045871 3.99931194 0.26204729 4.81380099 -3 6 C-3.99 5.67 -4.98 5.34 -6 5 C-1.60546875 0.99609375 -1.60546875 0.99609375 0 0 Z " fill="#0B74C3" transform="translate(67,87)"/>
<path d="M0 0 C0.66 0 1.32 0 2 0 C2 2.97 2 5.94 2 9 C1.34 8.34 0.68 7.68 0 7 C0 5.68 0 4.36 0 3 C-0.66 2.67 -1.32 2.34 -2 2 C-1.34 1.34 -0.68 0.68 0 0 Z " fill="#003C64" transform="translate(127,75)"/>
<path d="M0 0 C0.66 0 1.32 0 2 0 C2.26218749 3.14624993 2.24754367 4.61837017 0.5 7.3125 C-0.2425 8.1478125 -0.2425 8.1478125 -1 9 C-1.09765625 2.84765625 -1.09765625 2.84765625 -1 1 C-0.67 0.67 -0.34 0.34 0 0 Z " fill="#E3E4E6" transform="translate(105,41)"/>
<path d="M0 0 C3.32454983 0.57319825 4.73981645 1.54327875 7 4 C7.99 4.66 8.98 5.32 10 6 C5.16743695 5.58578031 3.17320782 3.53586014 0 0 Z " fill="#004693" transform="translate(112,188)"/>
<path d="M0 0 C1.98 0 3.96 0 6 0 C6.66 1.65 7.32 3.3 8 5 C4.62496331 3.8141763 2.35277269 2.72426311 0 0 Z " fill="#003967" transform="translate(132,134)"/>
<path d="M0 0 C0.33 0.66 0.66 1.32 1 2 C0.22265625 3.9453125 0.22265625 3.9453125 -0.9375 6.125 C-1.31777344 6.84945312 -1.69804687 7.57390625 -2.08984375 8.3203125 C-2.39019531 8.87460938 -2.69054687 9.42890625 -3 10 C-3.62109375 8.203125 -3.62109375 8.203125 -4 6 C-2.0625 2.75 -2.0625 2.75 0 0 Z " fill="#004B9A" transform="translate(25,115)"/>
<path d="M0 0 C1.73662334 3.22515763 2.8905928 6.51329166 4 10 C1.4375 7.8125 1.4375 7.8125 -1 5 C-0.8125 2.1875 -0.8125 2.1875 0 0 Z " fill="#326895" transform="translate(62,51)"/>
<path d="M0 0 C0.33 0.66 0.66 1.32 1 2 C1.66 2 2.32 2 3 2 C3.33 4.31 3.66 6.62 4 9 C3.01 8.34 2.02 7.68 1 7 C0.3125 3.375 0.3125 3.375 0 0 Z " fill="#969FA4" transform="translate(26,163)"/>
<path d="M0 0 C0.33 0.66 0.66 1.32 1 2 C-0.1875 4 -0.1875 4 -2 6 C-4.6875 6.25 -4.6875 6.25 -7 6 C-6.21625 5.38125 -5.4325 4.7625 -4.625 4.125 C-2.03162353 2.10141339 -2.03162353 2.10141339 0 0 Z " fill="#2A83C2" transform="translate(128,71)"/>
<path d="M0 0 C1.98 0 3.96 0 6 0 C6.33 0.99 6.66 1.98 7 3 C4.69 3 2.38 3 0 3 C0 2.01 0 1.02 0 0 Z " fill="#15A3D7" transform="translate(155,42)"/>
<path d="M0 0 C0.66 0.33 1.32 0.66 2 1 C1.0479279 2.00596297 0.08812654 3.00461563 -0.875 4 C-1.40867187 4.556875 -1.94234375 5.11375 -2.4921875 5.6875 C-4 7 -4 7 -6 7 C-4.60667426 3.63279613 -3.0210714 2.0140476 0 0 Z " fill="#D1E8F3" transform="translate(120,15)"/>
</svg>
